<?xml version="1.0" standalone="no"?> <!DOCTYPE svg PUBLIC "-//W3C//DTD SVG 1.0//EN" "http://www.w3.org/TR/2001/REC-SVG-20010904/DTD/svg10.dtd" > <svg xmlns="http://www.w3.org/2000/svg" width="100%" height="100%">
<defs >
<font id="archermediumitalpro" horiz-adv-x="865" ><font-face
    font-family="Archer Medium"
    units-per-em="2048"
    panose-1="0 0 0 0 0 0 0 0 0 0"
    ascent="1638"
    descent="-409"
    alphabetic="0" />
<missing-glyph horiz-adv-x="1024" d="M0 -410V1638H1024V-410H0ZM145 1536L512 737L879 1536H145ZM102 -156L455 614L102 1384V-156ZM922 1384L569 614L922 -156V1384ZM512 492L145 -307H879L512 492Z" />
<glyph unicode=" " glyph-name="space" horiz-adv-x="428" />
<glyph unicode="!" glyph-name="exclam" horiz-adv-x="501" d="M215 358L373 1346H555L285 358H215ZM250 -16T201 -16T117 18T82 102Q82 152 117 187T201 223Q249 223 283 188T317 102Q317 53 284 19Z" />
<glyph unicode="&quot;" glyph-name="quotedbl" horiz-adv-x="673" d="M508 860L551 1257Q557 1313 586 1342T655 1372Q698 1372 726 1344T754 1276Q754 1249 739 1219L565 860H508ZM190 860L233 1257Q239 1313 269 1342T338 1372Q381 1372 408 1345T436 1276Q436
1250 422 1219L248 860H190Z" />
<glyph unicode="#" glyph-name="numbersign" horiz-adv-x="1120" d="M152 668L180 788H391L461 1040H588L518 788H780L850 1040H979L909 788H1100L1069 668H874L797 383H1004L975 262H762L690 0H561L633 262H373L301 0H172L244 262H55L86 383H279L356 668H152ZM481
672L401 381H670L750 672H481Z" />
<glyph unicode="$" glyph-name="dollar" horiz-adv-x="989" d="M356 -217L252 -188Q257 -165 281 -89T313 16Q202 49 131 113T59 250Q59 299 88 333T162 367Q203 367 229 340T256 276Q256 231 217 197Q252 150 354 123L463 483Q418 504 388 520T322 561T264 613T228
678T213 760Q213 879 319 963T590 1047Q596 1047 609 1046T631 1044L672 1186L778 1157L737 1026Q835 998 896 940T958 815Q958 763 930 732T858 700Q818 700 792 726T766 793Q766 836 799 870Q776 899 694 918L592 580Q641 556 671 540T742 495T806 439T845 374T862
291Q862 158 755 75T483 -8Q460 -8 420 -4L356 -217ZM713 272Q713 327 671 365T551 442L451 109H475Q577 109 645 152T713 272ZM362 776Q362 728 399 692T504 621Q512 650 598 930H586Q487 930 425 889T362 776Z" />
<glyph unicode="%" glyph-name="percent" horiz-adv-x="1288" d="M918 76Q979 76 1029 136T1079 276Q1079 329 1050 363T971 397Q910 397 860 337T809 197Q809 144 838 110T918 76ZM143 -12L80 61L635 555L1192 1065L1255 991Q1124 881 694 492L143 -12ZM350 645Q413
645 463 705T514 846Q514 898 484 932T406 967Q344 967 294 907T244 766Q244 713 273 679T350 645ZM346 553Q251 553 194 614T137 768Q137 882 216 970T410 1059Q505 1059 563 999T621 844Q621 730 541 642T346 553ZM913 -16Q817 -16 760 44T702 199Q702 313 781
401T975 489Q1071 489 1128 429T1186 274Q1186 160 1107 72T913 -16Z" />
<glyph unicode="&amp;" glyph-name="ampersand" horiz-adv-x="1249" d="M23 283Q23 362 52 429T137 546T252 634T391 705Q317 828 317 946Q317 1093 416 1191T664 1290Q789 1290 868 1214T948 1036Q948 969 921 913T838 810T721 729T571 655Q577 647 639 571L793
387Q885 519 954 577T1110 635Q1170 635 1206 602T1243 522Q1243 480 1213 450T1143 420Q1073 420 1051 487Q1041 484 1030 478T1006 459T984 437T958 406T933 374T904 335T874 295L1077 57L981 -27L793 201Q592 -27 365 -27Q209 -27 116 61T23 283ZM379 100Q478
100 556 151T711 293L539 504Q499 551 455 610Q312 542 243 471T174 295Q174 209 228 155T379 100ZM455 950Q455 890 466 845T510 748Q660 813 733 878T807 1030Q807 1089 765 1131T653 1174Q566 1174 511 1107T455 950Z" />
<glyph unicode="&apos;" glyph-name="quotesingle" horiz-adv-x="358" d="M190 860L233 1257Q239 1313 269 1342T338 1372Q381 1372 408 1345T436 1276Q436 1250 422 1219L248 860H190Z" />
<glyph unicode="(" glyph-name="parenleft" horiz-adv-x="747" d="M569 -453Q379 -299 267 -87T154 381Q154 571 210 750T368 1075T608 1340T911 1538L969 1432Q659 1269 482 989T305 379Q305 163 396 -27T649 -360L569 -453Z" />
<glyph unicode=")" glyph-name="parenright" horiz-adv-x="765" d="M-70 -453L-129 -348Q182 -186 358 94T535 705Q535 921 445 1110T193 1444L270 1538Q462 1385 575 1172T688 702Q688 512 632 334T474 9T234 -255T-70 -453Z" />
<glyph unicode="*" glyph-name="asterisk" horiz-adv-x="829" d="M662 758Q633 758 611 781T582 840L541 1049L424 872Q387 825 344 825Q312 825 292 846T272 897Q272 945 328 977L512 1081L309 1143Q274 1152 254 1173T233 1223Q233 1254 255 1275T309 1296Q342
1296 379 1264L535 1122L530 1333Q529 1378 550 1406T604 1434Q649 1434 670 1399T666 1305L578 1114L778 1180Q798 1188 823 1188Q856 1188 877 1167T899 1116Q899 1076 869 1056T791 1042L584 1067L711 897Q735 862 735 825Q735 798 712 778T662 758Z" />
<glyph unicode="+" glyph-name="plus" horiz-adv-x="858" d="M602 887L539 616H815L786 492H510L440 193H311L381 492H104L135 616H410L473 887H602Z" />
<glyph unicode="," glyph-name="comma" horiz-adv-x="421" d="M-88 -293L-119 -233Q-4 -177 60 -109T129 4Q89 15 65 49T41 117Q41 168 77 205T166 242Q221 242 258 202T295 98Q295 -11 194 -120T-88 -293Z" />
<glyph unicode="-" glyph-name="hyphen" horiz-adv-x="598" d="M84 498L119 641H555L524 498H84Z" />
<glyph unicode="." glyph-name="period" horiz-adv-x="421" d="M168 -16Q114 -16 78 21T41 113T77 204T168 242Q220 242 256 204T293 113Q293 59 257 22T168 -16Z" />
<glyph unicode="/" glyph-name="slash" horiz-adv-x="772" d="M-82 -428L-199 -362L860 1518L977 1452L-82 -428Z" />
<glyph unicode="0" glyph-name="zero" horiz-adv-x="1163" d="M551 -16Q417 -16 316 47T164 216T113 449Q113 605 182 743T378 968T659 1055Q792 1055 893 991T1046 822T1098 588Q1098 473 1057 364T945 170T771 35T551 -16ZM553 111Q664 111 755 177T896 352T946
586Q946 733 864 830T655 928Q544 928 453 861T312 685T262 451Q262 305 344 208T553 111Z" />
<glyph unicode="1" glyph-name="one" horiz-adv-x="800" d="M12 0L39 123H285L461 889L229 831L225 961L578 1051L637 1024L428 123H672L643 0H12Z" />
<glyph unicode="2" glyph-name="two" horiz-adv-x="1021" d="M18 0L0 82Q32 156 86 221T212 338T353 430T512 512Q587 548 633 573T726 632T793 702T815 778Q815 843 753 887T580 932Q433 932 358 850Q399 827 399 774Q399 733 371 704T301 674Q257 674 226 705T195
784Q195 890 309 973T590 1057Q761 1057 863 979T965 786Q965 732 942 684T884 599T792 526T686 464T565 406Q392 325 309 265T176 121H717L758 297H885L815 0H18Z" />
<glyph unicode="3" glyph-name="three" horiz-adv-x="1001" d="M391 -258Q286 -258 192 -221T40 -119T-18 23Q-18 76 13 110T90 145Q131 145 157 119T184 55Q184 30 168 6T127 -29Q144 -68 216 -100T397 -133Q530 -133 614 -60T698 119Q698 227 609 297T377 367H332L360
487H408Q584 487 694 557T805 739Q805 827 738 879T555 932Q414 932 344 870Q391 844 391 797Q391 757 362 730T293 702Q251 702 221 733T190 813Q190 877 242 933T379 1023T559 1057Q739 1057 845 971T952 752Q952 621 857 535T596 420Q719 378 782 299T846 119Q846
-39 715 -148T391 -258Z" />
<glyph unicode="4" glyph-name="four" horiz-adv-x="1110" d="M860 586L780 240H1008L979 119H754L670 -246H526L610 119H23L8 180L858 1063L952 979L242 240H637L705 530L860 586Z" />
<glyph unicode="5" glyph-name="five" horiz-adv-x="1001" d="M367 -252Q214 -252 107 -183T0 -23Q0 26 31 60T106 94Q148 94 177 67T207 -2Q207 -44 176 -66Q229 -125 373 -125Q524 -125 621 -32T719 197Q719 308 645 369T444 430Q326 430 215 373L141 422L346
1040H981L950 905H428L303 522Q378 557 489 557Q652 557 759 462T866 209Q866 118 828 34T725 -113T566 -214T367 -252Z" />
<glyph unicode="6" glyph-name="six" horiz-adv-x="1095" d="M231 98Q115 215 115 440Q115 638 192 834T412 1163Q577 1311 780 1311Q909 1311 999 1251T1090 1106Q1090 1056 1062 1024T985 991Q944 991 916 1017T887 1085Q887 1123 915 1147Q872 1190 770 1190Q618
1190 492 1069Q414 996 350 872T262 616Q317 698 413 757T635 817Q801 817 902 715T1004 457Q1004 332 941 224T765 50T520 -16Q347 -16 231 98ZM260 367Q260 256 328 188Q399 111 526 111Q661 111 757 211T854 444Q854 556 789 624T606 692Q460 692 360 594T260
367Z" />
<glyph unicode="7" glyph-name="seven" horiz-adv-x="999" d="M190 -252L76 -178L840 922H311L260 717H127L203 1040H1006L1038 977L190 -252Z" />
<glyph unicode="8" glyph-name="eight" horiz-adv-x="1044" d="M483 -16Q310 -16 197 83T84 322Q84 457 171 551T403 684Q323 731 283 801T242 952Q242 1094 363 1201T659 1309Q827 1309 931 1215T1036 981Q1036 857 961 770T752 645Q840 601 891 528T942 360Q942
208 810 96T483 -16ZM614 721Q733 721 813 793T893 971Q893 1064 828 1125T655 1186Q538 1186 462 1115T385 936Q385 846 449 784T614 721ZM489 109Q624 109 709 185T795 373Q795 475 719 541T532 608Q400 608 314 527T227 336Q227 237 303 173T489 109Z" />
<glyph unicode="9" glyph-name="nine" horiz-adv-x="1095" d="M356 -258Q227 -258 137 -198T47 -53Q47 -4 75 28T152 61Q193 61 221 35T250 -33Q250 -72 221 -94Q268 -137 371 -137Q512 -137 641 -20Q722 54 785 179T870 428Q818 345 722 285T498 225Q331 225
230 326T129 584Q129 710 193 818T369 992T614 1057Q789 1057 901 942Q1018 825 1018 602Q1018 403 947 220T754 -86Q668 -172 573 -215T356 -258ZM872 674Q872 783 807 854Q731 930 608 930Q472 930 376 830T279 596Q279 485 344 418T526 350Q673 350 772 447T872
674Z" />
<glyph unicode=":" glyph-name="colon" horiz-adv-x="473" d="M367 522T315 522T227 559T190 649Q190 703 226 739T315 776Q368 776 404 740T440 649Q440 597 404 560ZM245 -16T193 -16T105 21T68 111Q68 163 104 200T193 238Q244 238 280 201T317 111Q317 58 281 21Z" />
<glyph unicode=";" glyph-name="semicolon" horiz-adv-x="473" d="M367 522T315 522T227 559T190 649Q190 703 226 739T315 776Q368 776 404 740T440 649Q440 597 404 560ZM-61 -291L-92 -231Q24 -174 87 -107T156 4Q115 15 92 49T68 117Q68 166 103 202T190 238Q244
238 281 198T319 96Q319 -10 219 -119T-61 -291Z" />
<glyph unicode="&lt;" glyph-name="less" horiz-adv-x="872" d="M549 162L113 510L129 578L715 920L776 821L283 532L629 256L549 162Z" />
<glyph unicode="=" glyph-name="equal" horiz-adv-x="858" d="M182 641L211 768H823L795 641H182ZM104 313L133 440H745L717 313H104Z" />
<glyph unicode="&gt;" glyph-name="greater" horiz-adv-x="837" d="M178 168L115 264L608 553L262 831L342 926L778 578L762 510L178 168Z" />
<glyph unicode="?" glyph-name="question" horiz-adv-x="925" d="M270 360L328 684Q459 689 560 720T720 801T810 908T840 1030Q840 1129 773 1184T598 1239Q519 1239 461 1212T387 1151Q408 1139 423 1117T438 1067Q438 1026 408 998T336 969Q291 969 260 1002T229
1087Q229 1164 284 1230T428 1334T612 1372Q777 1372 885 1281T993 1038Q993 954 957 877T854 737T681 631T444 573L367 360H270ZM313 -16T264 -16T180 18T145 102Q145 152 180 187T264 223T347 188T381 102Q381 53 347 19Z" />
<glyph unicode="@" glyph-name="at" horiz-adv-x="1648" d="M690 -360Q514 -360 377 -279T166 -56T92 264Q92 425 137 575T264 846T454 1056T694 1196T967 1245Q1238 1245 1400 1083T1563 657Q1563 498 1511 364T1367 152T1165 74Q1072 74 1023 124T977 246Q932
166 861 120T707 74Q597 74 526 151T455 358Q455 536 567 668T829 801Q917 801 974 754T1051 633L1096 793H1227L1112 334Q1090 255 1109 214T1186 172Q1262 172 1327 240T1430 420T1468 657Q1468 800 1409 913T1234 1093T967 1159Q756 1159 577 1040T292 714T186
262Q186 113 248 -9T426 -202T692 -274Q867 -274 1020 -193L1059 -266Q891 -360 690 -360ZM758 195Q864 195 941 289T1018 502Q1018 584 973 630T848 676Q746 676 674 585T602 371Q602 290 642 243T758 195Z" />
<glyph unicode="A" glyph-name="A" horiz-adv-x="1443" d="M-55 0L-23 135H100L743 1214H584L614 1348H1233L1202 1214H1049L1192 135H1335L1303 0H862L893 133H1042L1001 465H453L256 133H434L401 0H-55ZM530 596H983L903 1225L530 596Z" />
<glyph unicode="B" glyph-name="B" horiz-adv-x="1228" d="M6 0L39 135H201L451 1212H268L299 1348H774Q942 1348 1049 1290Q1122 1250 1163 1182T1204 1030Q1204 896 1108 802T864 686Q971 657 1041 579T1112 397Q1112 237 993 131Q901 48 750 16Q660 0 569 0H6ZM496
756H653Q834 756 941 825T1049 1018Q1049 1129 944 1180Q871 1214 752 1214H602L496 756ZM352 133H590Q668 133 731 150Q831 174 889 233Q954 295 954 401Q954 501 866 566T616 631H467L352 133Z" />
<glyph unicode="C" glyph-name="C" horiz-adv-x="1404" d="M725 -25Q606 -25 502 15T318 129T193 317T147 569Q147 727 208 875T371 1132T615 1306T909 1372Q1022 1372 1117 1340T1270 1257T1361 1151T1393 1042Q1393 976 1357 935T1270 893Q1221 893 1191 922T1161
995Q1161 1024 1177 1050T1221 1092Q1201 1147 1117 1191T903 1235Q777 1235 664 1178T473 1029T350 820T305 584Q305 365 423 240T739 115Q970 115 1161 303L1251 209Q1024 -25 725 -25Z" />
<glyph unicode="D" glyph-name="D" horiz-adv-x="1449" d="M6 0L39 135H201L451 1212H268L299 1348H727Q918 1348 1046 1302T1270 1159Q1337 1091 1374 994T1411 786Q1411 467 1200 256Q947 0 489 0H6ZM352 135H514Q877 135 1075 336Q1251 509 1251 780Q1251 866
1223 941T1143 1067Q1073 1139 972 1175T713 1212H602L352 135Z" />
<glyph unicode="E" glyph-name="E" horiz-adv-x="1193" d="M6 0L39 135H201L451 1212H268L299 1348H1280L1200 1018H1055L1100 1214H602L496 752H928L899 621H465L352 133H852L899 330H1044L969 0H6Z" />
<glyph unicode="F" glyph-name="F" horiz-adv-x="1150" d="M6 0L39 135H201L451 1212H268L299 1348H1262L1184 1018H1036L1083 1214H602L489 727H911L881 596H459L352 135H551L518 0H6Z" />
<glyph unicode="G" glyph-name="G" horiz-adv-x="1470" d="M1063 0L1085 131Q898 -20 666 -20Q443 -20 294 132T145 530Q145 695 207 849T375 1117T630 1301T946 1370Q1073 1370 1179 1332T1350 1233Q1427 1156 1427 1069Q1427 1007 1391 970T1307 932Q1258 932
1228 960T1198 1034Q1198 1087 1251 1124Q1245 1135 1225 1155Q1181 1189 1107 1211T940 1233Q803 1233 683 1174T481 1018T352 795T305 537Q305 347 412 231T700 115Q926 115 1104 252L1171 526H795L825 655H1352L1196 0H1063Z" />
<glyph unicode="H" glyph-name="H" horiz-adv-x="1570" d="M6 0L39 135H201L451 1212H268L299 1348H799L768 1212H602L498 758H1229L1331 1212H1145L1178 1348H1677L1647 1212H1485L1235 135H1417L1384 0H885L915 135H1081L1198 623H465L352 135H539L508 0H6Z" />
<glyph unicode="I" glyph-name="I" horiz-adv-x="722" d="M6 0L39 135H219L467 1212H281L311 1348H829L799 1212H618L371 135H557L524 0H6Z" />
<glyph unicode="J" glyph-name="J" horiz-adv-x="1146" d="M418 -23Q266 -23 158 65T49 297Q49 373 92 422T197 471Q239 471 268 444T297 377Q297 336 270 308T195 279Q191 207 256 160T428 113Q573 113 657 219Q724 302 762 467L932 1212H705L737 1348H1276L1243
1212H1083L905 444Q857 237 764 123Q637 -23 418 -23Z" />
<glyph unicode="K" glyph-name="K" horiz-adv-x="1345" d="M1313 1212L774 758L1071 135H1255L1225 0H963L655 666L432 477L352 135H539L506 0H6L39 135H201L451 1212H268L299 1348H791L760 1214H602L471 647L1126 1214H952L981 1348H1491L1460 1212H1313Z" />
<glyph unicode="L" glyph-name="L" horiz-adv-x="1124" d="M6 0L39 135H201L451 1212H268L299 1348H811L780 1212H602L352 133H811L860 340H1006L928 0H6Z" />
<glyph unicode="M" glyph-name="M" horiz-adv-x="1771" d="M0 0L33 135H195L494 1212H307L338 1348H657L883 426L1524 1348H1847L1817 1212H1649L1448 135H1634L1602 0H1106L1137 135H1298L1483 1077L848 176H821L592 1077L344 135H526L496 0H0Z" />
<glyph unicode="N" glyph-name="N" horiz-adv-x="1540" d="M1122 -6L569 1094L348 135H535L504 0H6L39 135H201L451 1212H268L299 1348H608L1126 317L1333 1212H1145L1178 1348H1667L1636 1212H1479L1198 -6H1122Z" />
<glyph unicode="O" glyph-name="O" horiz-adv-x="1499" d="M715 -25Q539 -25 408 52T211 259T145 555Q145 704 202 851T357 1113T596 1300T895 1372Q1070 1372 1201 1295T1398 1088T1464 793Q1464 674 1428 555T1324 332T1166 148T958 22T715 -25ZM727 115Q848
115 957 173T1142 327T1262 544T1307 791Q1307 882 1281 961T1203 1101T1070 1198T883 1233Q762 1233 653 1175T468 1021T348 804T303 557Q303 465 329 386T407 246T540 150T727 115Z" />
<glyph unicode="P" glyph-name="P" horiz-adv-x="1153" d="M6 0L39 135H201L451 1212H268L299 1348H741Q838 1348 911 1327Q1052 1291 1125 1197T1198 973Q1198 874 1160 786T1052 631T875 525T637 485Q518 485 436 489L352 135H539L508 0H6ZM657 618Q842 618
943 719T1044 963Q1044 1050 997 1111T856 1198Q801 1212 725 1212H602L467 625Q549 618 657 618Z" />
<glyph unicode="Q" glyph-name="Q" horiz-adv-x="1499" d="M1464 793Q1464 686 1435 578T1349 374T1218 198T1044 63T838 -12Q881 -87 957 -130T1124 -174Q1199 -174 1266 -137L1313 -258Q1215 -307 1118 -307Q974 -307 856 -229T668 -23Q506 -13 386 66T206 271T145
555Q145 704 202 851T357 1113T596 1300T895 1372Q1070 1372 1201 1295T1398 1088T1464 793ZM727 115Q848 115 957 173T1142 327T1262 544T1307 791Q1307 882 1281 961T1203 1101T1070 1198T883 1233Q762 1233 653 1175T468 1021T348 804T303 557Q303 465 329 386T407
246T540 150T727 115Z" />
<glyph unicode="R" glyph-name="R" horiz-adv-x="1234" d="M6 0L39 135H201L451 1212H268L299 1348H713Q980 1348 1106 1225Q1198 1131 1198 987Q1198 834 1096 722T813 567L1018 135H1176L1145 0H909L664 549Q641 547 596 547Q537 547 451 551L352 135H537L504
0H6ZM649 678Q831 678 937 761T1044 979Q1044 1072 983 1133Q904 1212 709 1212H602L479 684Q549 678 649 678Z" />
<glyph unicode="S" glyph-name="S" horiz-adv-x="1128" d="M549 -23Q355 -23 219 74T82 285Q82 347 117 386T205 426Q249 426 279 395T309 326Q309 262 252 223Q288 176 367 144T559 111Q679 111 762 177T846 346Q846 388 830 424T779 493T708 551T614 610Q555
645 516 671T431 735T360 811T315 899T297 1006Q297 1154 420 1262T733 1370Q903 1370 1024 1287T1145 1098Q1145 1035 1111 997T1026 958Q981 958 952 988T922 1063Q922 1117 973 1153Q945 1187 880 1212T729 1237Q607 1237 531 1174T455 1016Q455 972 471 936T524
865T599 805T705 739Q774 698 818 666T910 586T980 481T1004 356Q1004 193 875 85T549 -23Z" />
<glyph unicode="T" glyph-name="T" horiz-adv-x="1284" d="M295 0L326 135H500L748 1214H414L365 1001H219L299 1348H1411L1331 1001H1186L1235 1214H901L651 135H846L813 0H295Z" />
<glyph unicode="U" glyph-name="U" horiz-adv-x="1462" d="M684 -23Q477 -23 364 84T250 373Q250 438 270 535L428 1212H248L279 1348H776L745 1212H580L422 526Q403 429 403 383Q403 256 476 185T700 113T944 203T1073 451L1247 1212H1061L1092 1348H1589L1559
1212H1397L1219 432Q1113 -23 684 -23Z" />
<glyph unicode="V" glyph-name="V" horiz-adv-x="1404" d="M553 -20L348 1212H205L238 1348H684L653 1212H510L655 231L1245 1212H1087L1118 1348H1571L1538 1212H1415L641 -20H553Z" />
<glyph unicode="W" glyph-name="W" horiz-adv-x="1937" d="M438 -18L371 1212H227L258 1348H715L684 1212H516L549 264L1077 1186H1147L1280 260L1761 1212H1597L1630 1348H2085L2054 1212H1921L1278 -18H1196L1055 887L520 -18H438Z" />
<glyph unicode="X" glyph-name="X" horiz-adv-x="1454" d="M-29 0L2 135H152L707 700L438 1212H270L301 1348H803L772 1212H610L809 784L1210 1212H1047L1079 1348H1585L1552 1212H1397L874 680L1163 135H1327L1294 0H799L829 135H997L774 600L336 135H510L477 0H-29Z" />
<glyph unicode="Y" glyph-name="Y" horiz-adv-x="1292" d="M254 0L287 135H469L569 543L336 1212H195L227 1348H678L649 1212H494L674 657L1124 1212H973L1006 1348H1468L1438 1212H1303L713 514L623 135H813L784 0H254Z" />
<glyph unicode="Z" glyph-name="Z" horiz-adv-x="1255" d="M29 0L20 74L1104 1221H455L406 1008H262L340 1348H1333L1341 1274L258 127H940L989 340H1133L1053 0H29Z" />
<glyph unicode="[" glyph-name="bracketleft" horiz-adv-x="698" d="M12 -410L457 1499H926L897 1372H573L186 -283H510L481 -410H12Z" />
<glyph unicode="\" glyph-name="backslash" horiz-adv-x="636" d="M358 -412L225 1493L356 1503L492 -399L358 -412Z" />
<glyph unicode="]" glyph-name="bracketright" horiz-adv-x="698" d="M-180 -410L-150 -283H174L561 1372H236L266 1499H733L291 -410H-180Z" />
<glyph unicode="^" glyph-name="asciicircum" horiz-adv-x="907" d="M270 735L211 813L596 1114L829 801L758 737L565 918L270 735Z" />
<glyph unicode="_" glyph-name="underscore" horiz-adv-x="1056" d="M-115 -303L-80 -166H1028L997 -303H-115Z" />
<glyph unicode="`" glyph-name="grave" horiz-adv-x="1130" d="M813 1020L573 1198Q520 1241 520 1290Q520 1325 546 1350T606 1376Q635 1376 656 1362T700 1311L860 1059L813 1020Z" />
<glyph unicode="a" glyph-name="a" horiz-adv-x="1146" d="M395 -16Q257 -16 172 80T86 338Q86 484 148 611T318 813T549 889Q654 889 727 829T821 672L877 879H1014L856 238Q842 177 842 152Q842 122 857 105T899 88Q961 88 1016 225L1087 201Q1019 -14 868 -14Q795
-14 751 30T707 145V166Q646 83 567 34T395 -16ZM442 109Q538 109 618 172T740 331T782 524Q782 633 726 697T563 762Q471 762 396 703T279 549T238 348Q238 238 290 174T442 109Z" />
<glyph unicode="b" glyph-name="b" horiz-adv-x="1081" d="M59 0L379 1376H213L244 1499H549L362 705Q419 787 497 838T666 889Q813 889 903 790T993 528Q993 417 955 316T854 141T706 25T530 -18Q423 -18 346 40T248 195L197 0H59ZM516 111Q607 111 683 168T800
317T842 510Q842 626 785 694T627 762Q535 762 455 700T330 542T285 346Q285 240 346 176T516 111Z" />
<glyph unicode="c" glyph-name="c" horiz-adv-x="950" d="M477 -16Q307 -16 196 86T84 360Q84 497 151 619T334 815T584 889Q728 889 813 817T899 655Q899 604 869 568T791 532Q756 532 729 556T702 625Q702 643 713 665T743 698Q695 764 580 764Q441 764 335
649T229 369Q229 251 301 180T494 109Q650 109 784 223L780 84Q646 -16 477 -16Z" />
<glyph unicode="d" glyph-name="d" horiz-adv-x="1150" d="M88 338Q88 487 151 614T319 815T545 889Q648 889 724 830T821 678L985 1376H819L850 1499H1157L862 238Q846 179 846 152Q846 88 903 88Q935 88 963 119T1022 225L1094 201Q1060 93 1003 40T872 -14T756
30T713 150V168Q653 85 574 35T401 -16Q264 -16 176 81T88 338ZM451 109Q545 109 623 171T744 327T786 522Q786 632 728 697T561 762Q470 762 396 703T281 550T240 350Q240 240 295 175T451 109Z" />
<glyph unicode="e" glyph-name="e" horiz-adv-x="974" d="M866 393H225Q223 379 223 350Q223 239 303 173T502 106Q576 106 641 124T791 186L760 47Q690 13 626 -1T473 -16Q311 -16 197 83T82 352Q82 497 148 621T325 817T565 889Q718 889 808 803T899 569Q899
485 866 393ZM660 764T559 764T373 692T248 504H750Q764 540 764 590Q764 665 712 714Z" />
<glyph unicode="f" glyph-name="f" horiz-adv-x="641" d="M104 0L276 748H121L152 872H305L371 1157Q408 1323 502 1419Q590 1509 727 1509Q801 1509 844 1475T887 1389Q887 1345 858 1317T788 1288Q747 1288 719 1314T688 1384Q637 1374 602 1339Q541 1278 508
1139L446 872H674L643 748H418L246 0H104Z" />
<glyph unicode="g" glyph-name="g" horiz-adv-x="1081" d="M371 -410Q285 -410 199 -380T72 -311Q25 -261 25 -209Q25 -161 53 -131T125 -100T196 -130T223 -201Q223 -232 207 -254Q269 -293 371 -293Q499 -293 578 -215Q643 -150 682 6L723 182Q667 98 588 52T418
6Q270 6 179 102T88 360Q88 503 150 625T319 818T555 889Q665 889 737 829T834 678L887 879H1024L815 -20Q769 -213 682 -297Q572 -410 371 -410ZM465 131Q560 131 637 189T754 338T795 528Q795 636 733 699T565 762Q426 762 333 646T240 369Q240 260 301 196T465
131Z" />
<glyph unicode="h" glyph-name="h" horiz-adv-x="1079" d="M59 0L379 1376H213L244 1499H549L360 692Q415 777 490 832T651 887Q757 887 827 821T899 649Q899 586 877 512L801 229Q788 184 788 154T804 106T848 88Q880 88 907 119T963 225L1034 201Q969 -14 819
-14Q740 -14 693 31T645 147Q645 186 659 244L737 530Q752 583 752 633Q751 691 710 727T606 764Q511 764 426 679T305 444L203 0H59Z" />
<glyph unicode="i" glyph-name="i" horiz-adv-x="604" d="M418 1040Q374 1040 344 1071T313 1145T344 1218T418 1249Q459 1249 489 1219T520 1145T490 1071T418 1040ZM305 -14Q226 -14 180 30T133 150Q133 185 150 244L287 748H117L150 872H463L291 238Q276 176
276 152Q276 122 292 105T336 88Q370 88 398 119T455 225L526 201Q458 -14 305 -14Z" />
<glyph unicode="j" glyph-name="j" horiz-adv-x="542" d="M-76 -408Q-141 -408 -184 -376T-227 -295Q-227 -252 -199 -226T-131 -199Q-95 -199 -68 -224T-41 -283Q7 -272 43 -231Q100 -165 137 4L309 748H133L166 872H479L276 -12Q248 -133 215 -205T133 -326Q95
-363 40 -385T-76 -408ZM477 1040T434 1040T362 1070T332 1145Q332 1188 361 1218T434 1249T507 1219T537 1145Q537 1101 507 1071Z" />
<glyph unicode="k" glyph-name="k" horiz-adv-x="964" d="M203 0H59L379 1376H213L244 1499H549L303 444Q484 518 592 584T729 696Q706 708 692 732T678 780Q678 827 708 858T784 889Q829 889 859 857T889 772Q889 683 791 593T528 424L621 205Q647 133 668 111Q686
90 715 90Q772 90 811 250L887 227Q857 92 808 39T690 -14Q621 -14 575 27Q531 64 500 143L401 381Q343 354 281 330L203 0Z" />
<glyph unicode="l" glyph-name="l" horiz-adv-x="569" d="M276 -14Q198 -14 152 31T106 150Q106 178 121 240L385 1376H221L252 1499H557L264 240Q250 163 250 154Q250 122 265 105T307 88Q340 88 369 119T428 225L500 201Q432 -14 276 -14Z" />
<glyph unicode="m" glyph-name="m" horiz-adv-x="1619" d="M90 0L279 748H115L145 872H436L385 666Q447 767 524 827T684 887Q783 887 844 828T909 668Q971 770 1050 828T1212 887Q1311 887 1375 821T1440 649Q1440 584 1417 512L1335 229Q1323 177 1323 154Q1323
124 1339 106T1382 88Q1444 88 1499 225L1571 201Q1503 -14 1352 -14Q1273 -14 1227 30T1180 147Q1180 196 1196 246L1276 526Q1292 592 1292 633Q1292 693 1257 728T1165 764Q1077 764 995 678T872 438L760 0H616L752 524Q768 593 768 635Q768 691 733 727T639
764Q550 764 465 678T344 440L233 0H90Z" />
<glyph unicode="n" glyph-name="n" horiz-adv-x="1114" d="M846 -14Q767 -14 721 30T674 147Q674 196 690 246L772 530Q786 585 786 633Q786 692 747 728T645 764Q552 764 468 679T346 444L233 0H90L279 748H115L145 872H436L387 666Q447 767 526 827T694 887Q800
887 867 821T934 649Q934 584 911 512L831 229Q817 184 817 154T833 106T877 88Q909 88 936 119T993 225L1065 201Q997 -14 846 -14Z" />
<glyph unicode="o" glyph-name="o" horiz-adv-x="1040" d="M463 -16Q289 -16 187 93T84 365Q84 465 122 560T224 728T382 845T578 889Q751 889 853 779T956 508Q956 373 893 253T715 58T463 -16ZM469 109Q613 109 712 226T811 508Q811 625 744 694T571 764Q429
764 329 646T229 362Q229 247 297 178T469 109Z" />
<glyph unicode="p" glyph-name="p" horiz-adv-x="1118" d="M-133 -401L-102 -279H29L274 748H109L139 872H432L391 690Q525 889 707 889Q851 889 940 790T1030 528Q1030 417 992 316T891 141T743 25T565 -18Q465 -18 389 38T281 184L174 -279H352L322 -401H-133ZM553
111Q690 111 784 232T879 510Q879 626 822 694T664 762Q572 762 491 700T365 541T319 346Q319 240 381 176T553 111Z" />
<glyph unicode="q" glyph-name="q" horiz-adv-x="1081" d="M406 -16Q261 -16 174 81T86 342Q86 488 150 614T322 815T555 889Q658 889 733 830T831 682L883 872H1020L754 -279H936L905 -401H582L713 158Q656 79 576 32T406 -16ZM453 109Q549 109 628 172T750 329T793
522Q793 631 736 696T571 762Q432 762 335 638T238 352Q238 242 295 176T453 109Z" />
<glyph unicode="r" glyph-name="r" horiz-adv-x="782" d="M90 0L279 748H115L145 872H436L379 631Q553 887 678 887Q730 887 763 857T797 778Q797 732 764 699T686 666Q646 666 618 689T582 748Q519 716 442 618T332 387L233 0H90Z" />
<glyph unicode="s" glyph-name="s" horiz-adv-x="864" d="M412 -14Q319 -14 236 17T102 98Q51 151 51 207Q51 252 78 282T147 313Q187 313 211 288T236 227Q236 196 209 162Q223 148 244 137Q317 98 418 98Q493 98 543 130T594 219Q594 242 583 263T559 298T517
330T470 357T414 385Q367 407 339 421T275 460T220 506T186 562T172 633Q172 741 257 812T487 883Q572 883 642 858T756 788Q805 739 805 682Q805 635 778 607T713 578Q676 578 650 602T623 664Q623 691 645 729Q626 742 614 748Q563 772 483 772Q407 772 360 740T313
657Q313 637 324 619T348 587T391 556T439 529T500 500Q555 474 590 453T663 401T718 331T737 244Q737 122 646 54T412 -14Z" />
<glyph unicode="t" glyph-name="t" horiz-adv-x="692" d="M686 748H420L297 248Q285 204 285 172Q285 142 304 122T354 102Q388 102 429 121T537 184L590 109Q434 -16 315 -16Q237 -16 186 29T135 150Q135 191 152 248L274 748H119L150 872H305L356 1077L514 1128L451
872H717L686 748Z" />
<glyph unicode="u" glyph-name="u" horiz-adv-x="1114" d="M139 872H446L305 326Q293 282 293 231Q293 176 329 141T426 106Q521 106 606 192T729 426L840 872H983L825 238Q809 182 809 152T825 105T868 88Q930 88 985 225L1057 201Q989 -14 836 -14Q763 -14 720
30T676 152Q676 159 680 193Q621 99 543 43T377 -14Q277 -14 211 47T145 207Q145 260 164 338L270 748H106L139 872Z" />
<glyph unicode="v" glyph-name="v" horiz-adv-x="964" d="M344 -29L203 748H45L78 872H332L438 150Q561 286 650 427T766 672Q731 682 708 710T684 778Q684 825 715 857T793 889Q844 889 877 851T911 748Q911 624 771 403T424 -29H344Z" />
<glyph unicode="w" glyph-name="w" horiz-adv-x="1368" d="M287 -29L213 748H53L86 872H338L383 188L713 766H782L909 168Q1140 509 1161 676Q1125 684 1100 711T1075 780Q1075 826 1105 857T1182 889Q1233 889 1266 853T1300 754Q1300 520 905 -29H834L711 539L367
-29H287Z" />
<glyph unicode="x" glyph-name="x" horiz-adv-x="1081" d="M139 -14Q81 -14 47 18T12 96Q12 138 41 167T109 197Q176 197 199 127Q230 134 265 171T356 287L471 446L352 748H178L209 872H444L557 553L647 686Q780 889 911 889Q972 889 1008 856T1044 776Q1044
737 1015 708T946 678Q876 678 854 745Q805 733 715 602L610 455L713 209Q743 134 761 111T801 88Q850 88 893 225L965 205Q909 -14 774 -14Q712 -14 672 23T598 150L524 350L414 186Q343 79 279 33T139 -14Z" />
<glyph unicode="y" glyph-name="y" horiz-adv-x="987" d="M-31 -410Q-87 -410 -127 -376T-168 -293Q-168 -251 -140 -221T-70 -190Q-31 -190 -5 -215T27 -281H31Q116 -281 365 18L215 748H59L90 872H342L469 143Q758 518 795 674Q760 685 736 714T711 784Q711
827 741 858T817 889Q871 889 903 852T936 748Q936 643 843 478T514 18Q408 -113 327 -198T181 -330T69 -393T-31 -410Z" />
<glyph unicode="z" glyph-name="z" horiz-adv-x="966" d="M66 -14L12 57L733 756H317L276 588H150L219 872H899L940 797L244 123Q303 145 373 145Q421 145 505 126T627 106Q690 106 720 141T786 279L856 262Q843 206 831 169T800 93T758 33T699 -2T618 -16Q569
-16 453 11T283 39Q170 39 66 -14Z" />
<glyph unicode="{" glyph-name="braceleft" horiz-adv-x="690" d="M426 -438Q250 -416 158 -327T66 -113Q66 37 240 180Q283 217 305 238T348 291T369 350Q369 400 324 438T184 477H115L147 616H219Q331 616 393 665T455 786Q455 849 395 956Q326 1083 326 1178Q326
1325 461 1424T854 1530L838 1425Q740 1419 665 1396T548 1338T484 1265T463 1184Q463 1117 528 991Q594 865 594 791Q594 689 527 625T340 543Q425 524 468 471T512 350Q512 243 354 115Q205 -11 205 -106Q205 -281 453 -338L426 -438Z" />
<glyph unicode="|" glyph-name="bar" horiz-adv-x="552" d="M213 -410V1499H340V-410H213Z" />
<glyph unicode="}" glyph-name="braceright" horiz-adv-x="690" d="M-115 -436L-98 -332Q91 -320 183 -250T276 -90Q276 -17 211 104Q145 228 145 305Q145 404 212 469T399 551Q314 570 271 622T227 743Q227 806 269 862T385 981Q456 1041 495 1093T535 1202Q535
1375 287 1432L313 1532Q489 1511 581 1422T674 1206Q674 1119 627 1050T500 913Q439 863 405 823T371 743Q371 694 416 655T555 616H625L592 477H520Q408 477 347 428T285 307Q285 244 344 137Q414 14 414 -84Q414 -231 279 -330T-115 -436Z" />
<glyph unicode="~" glyph-name="asciitilde" horiz-adv-x="954" d="M631 385Q578 385 540 406T463 467Q404 526 367 526Q296 526 242 395L145 430Q169 535 234 602T371 670Q424 670 463 647T543 584Q578 551 596 539T637 526Q673 526 702 556T760 657L858 623Q828
512 766 449T631 385Z" />
</font>
</defs>
</svg>
