<?xml version="1.0" standalone="no"?> <!DOCTYPE svg PUBLIC "-//W3C//DTD SVG 1.0//EN" "http://www.w3.org/TR/2001/REC-SVG-20010904/DTD/svg10.dtd" > <svg xmlns="http://www.w3.org/2000/svg" width="100%" height="100%">
<defs >
<font id="archerbookitalpro" horiz-adv-x="847" ><font-face
    font-family="Archer Book"
    units-per-em="2048"
    panose-1="2 0 0 0 0 0 0 0 0 0"
    ascent="1638"
    descent="-410"
    alphabetic="0" />
<missing-glyph horiz-adv-x="1024" d="M0 -410V1638H1024V-410H0ZM145 1536L512 737L879 1536H145ZM102 -156L455 614L102 1384V-156ZM922 1384L569 614L922 -156V1384ZM512 492L145 -307H879L512 492Z" />
<glyph unicode=" " glyph-name="space" horiz-adv-x="430" />
<glyph unicode="!" glyph-name="exclam" horiz-adv-x="479" d="M211 336L383 1346H522L260 336H211ZM227 -16T184 -16T112 14T82 88T112 163T184 195Q227 195 257 163T287 88T257 15Z" />
<glyph unicode="&quot;" glyph-name="quotedbl" horiz-adv-x="575" d="M438 901L492 1270Q499 1323 524 1347T580 1372Q616 1372 636 1351T657 1296Q657 1272 645 1243L477 901H438ZM176 901L229 1270Q237 1323 261 1347T317 1372Q353 1372 374 1351T395 1296Q395
1272 383 1243L215 901H176Z" />
<glyph unicode="#" glyph-name="numbersign" horiz-adv-x="1062" d="M137 672L162 766H381L453 1026H547L475 766H758L829 1026H924L852 766H1049L1024 672H825L739 360H958L934 266H715L641 0H547L621 266H336L264 0H170L244 266H47L72 360H268L354 672H137ZM449
672L362 360H645L731 672H449Z" />
<glyph unicode="$" glyph-name="dollar" horiz-adv-x="944" d="M326 -215L242 -193Q260 -119 301 8Q195 39 127 100T59 227Q59 271 85 302T152 334Q189 334 211 310T233 256Q233 214 190 174Q225 127 332 98L449 492Q396 517 361 538T289 592T234 665T215 756Q215
874 315 954T563 1034Q571 1034 585 1033T606 1032L647 1174L731 1151L692 1018Q787 991 847 937T907 821Q907 774 881 746T819 717T760 740T737 797Q737 840 774 874Q747 905 659 928L551 563Q610 534 645 513T723 457T786 378T807 279Q807 191 756 124T626 22T453
-12Q429 -12 387 -8L326 -215ZM698 264Q698 327 653 370T520 457L412 84Q426 82 453 82Q550 82 624 131T698 264ZM326 768Q326 714 366 675T479 598L578 940H555Q461 940 394 895T326 768Z" />
<glyph unicode="%" glyph-name="percent" horiz-adv-x="1239" d="M340 553Q249 553 197 610T145 756Q145 866 222 955T410 1044Q501 1044 552 987T604 842Q604 731 527 642T340 553ZM868 -16Q777 -16 726 41T674 186Q674 297 751 386T938 475Q1029 475 1081 418T1133
272Q1133 162 1056 73T868 -16ZM141 -18L84 45L600 537L1133 1042L1190 979L659 475L141 -18ZM342 627Q408 627 463 692T518 846Q518 901 488 936T408 971Q342 971 287 906T231 752Q231 697 261 662T342 627ZM870 57Q936 57 991 122T1047 276Q1047 331 1017 366T936
401Q870 401 815 336T760 182Q760 128 790 93T870 57Z" />
<glyph unicode="&amp;" glyph-name="ampersand" horiz-adv-x="1200" d="M14 270Q14 349 42 415T126 532T242 621T387 696Q319 818 319 934Q319 1080 410 1177T641 1274Q755 1274 828 1204T901 1036Q901 996 890 960T862 894T814 835T756 785T684 738T606 696T520
655Q539 627 592 563L764 354Q850 483 915 541T1065 600Q1122 600 1153 572T1184 504Q1184 468 1158 442T1098 416Q1066 416 1043 435T1012 489Q1003 486 994 482T973 468T954 451T934 429T914 405T893 376T872 346T848 313T825 279L1028 35L954 -27L764 209Q722
160 681 123T587 49T471 -6T338 -25Q191 -25 103 61T14 270ZM348 72Q459 72 541 127T705 281L516 514Q502 530 432 623Q357 584 308 553T214 480T148 388T127 276Q127 191 186 132T348 72ZM422 942Q422 823 473 729Q641 803 718 871T795 1028Q795 1092 751 1137T631
1182Q540 1182 481 1111T422 942Z" />
<glyph unicode="&apos;" glyph-name="quotesingle" horiz-adv-x="313" d="M176 901L229 1270Q237 1323 261 1347T317 1372Q353 1372 374 1351T395 1296Q395 1272 383 1243L215 901H176Z" />
<glyph unicode="(" glyph-name="parenleft" horiz-adv-x="696" d="M553 -449Q164 -128 164 367Q164 553 218 731T370 1060T599 1333T889 1540L940 1460Q640 1291 461 995T281 367Q281 -80 610 -375L553 -449Z" />
<glyph unicode=")" glyph-name="parenright" horiz-adv-x="696" d="M-109 -449L-160 -369Q141 -199 320 97T500 725Q500 1172 170 1466L227 1540Q616 1219 616 725Q616 539 562 360T410 32T181 -241T-109 -449Z" />
<glyph unicode="*" glyph-name="asterisk" horiz-adv-x="778" d="M647 815Q620 815 602 833T578 879L528 1083L414 909Q385 868 348 868Q322 868 304 886T285 930Q285 972 326 997L500 1110L303 1165Q240 1184 240 1237Q240 1263 258 1279T305 1296Q334 1296 360
1274L520 1145L514 1350Q513 1390 533 1413T580 1436Q616 1436 634 1405T635 1329L557 1139L752 1204Q770 1210 791 1210Q818 1210 837 1192T856 1149Q856 1117 831 1099T768 1083L565 1098L690 932Q711 905 711 874Q711 851 691 833T647 815Z" />
<glyph unicode="+" glyph-name="plus" horiz-adv-x="817" d="M559 860L498 592H774L752 494H475L403 184H301L373 494H96L119 592H395L457 860H559Z" />
<glyph unicode="," glyph-name="comma" horiz-adv-x="376" d="M-96 -276L-119 -231Q-14 -185 49 -117T117 0Q79 7 56 38T33 102Q33 145 62 175T137 205Q184 205 216 170T248 82Q248 -21 162 -120T-96 -276Z" />
<glyph unicode="-" glyph-name="hyphen" horiz-adv-x="499" d="M68 512L94 618H461L438 512H68Z" />
<glyph unicode="." glyph-name="period" horiz-adv-x="376" d="M139 -16Q94 -16 64 16T33 94Q33 141 63 173T139 205Q185 205 215 173T246 94Q246 48 216 16T139 -16Z" />
<glyph unicode="/" glyph-name="slash" horiz-adv-x="727" d="M-113 -424L-207 -373L838 1513L932 1462L-113 -424Z" />
<glyph unicode="0" glyph-name="zero" horiz-adv-x="1140" d="M532 -18Q405 -18 308 45T162 211T113 438Q113 554 153 663T262 855T431 988T645 1038Q771 1038 868 975T1015 809T1065 582Q1065 466 1025 357T916 165T747 32T532 -18ZM532 82Q652 82 748 151T897
334T950 580Q950 732 863 835T643 938Q523 938 427 869T278 686T225 440Q225 288 312 185T532 82Z" />
<glyph unicode="1" glyph-name="one" horiz-adv-x="761" d="M4 0L27 94H272L459 903L223 844L221 946L555 1034L594 1016L381 94H623L600 0H4Z" />
<glyph unicode="2" glyph-name="two" horiz-adv-x="970" d="M6 0L-6 63Q18 123 59 178T146 274T257 358T375 430T504 498Q575 534 621 561T712 624T779 697T801 776Q801 844 737 894T547 944Q390 944 311 848Q360 827 360 770Q360 735 336 711T276 686Q237 686
210 713T182 782Q182 883 291 962T551 1042Q719 1042 815 967T911 784Q911 731 889 684T836 601T749 528T650 466T537 408Q349 315 264 251T129 94H684L725 274H825L762 0H6Z" />
<glyph unicode="3" glyph-name="three" horiz-adv-x="980" d="M375 -256Q284 -256 197 -226T49 -136T-12 0Q-12 46 15 77T84 109Q120 109 142 87T164 35Q164 10 146 -14T98 -45Q119 -90 194 -125T383 -160Q523 -160 614 -84T705 109Q705 222 608 296T362 371H324L348
467H391Q578 467 693 543T809 735Q809 829 738 886T543 944Q389 944 313 868Q338 859 353 839T369 795Q369 762 344 740T285 717Q249 717 223 745T197 813Q197 905 306 973T545 1042Q719 1042 819 959T920 748Q920 678 893 621T815 523T703 457T563 416Q684 376
749 296T815 115Q815 12 755 -74T594 -208T375 -256Z" />
<glyph unicode="4" glyph-name="four" horiz-adv-x="1069" d="M805 582L721 223H961L938 129H700L614 -246H504L590 129H8L0 168L829 1040L901 977L184 223H610L684 539L805 582Z" />
<glyph unicode="5" glyph-name="five" horiz-adv-x="976" d="M346 -250Q208 -250 106 -184T4 -35Q4 5 30 34T96 63Q131 63 154 42T178 -14Q178 -60 141 -82Q200 -152 350 -152Q504 -152 607 -53T711 193Q711 313 633 374T426 436T180 377L137 408L342 1026H944L922
924H406L270 506Q342 537 453 537Q615 537 720 445T825 201Q825 17 685 -116T346 -250Z" />
<glyph unicode="6" glyph-name="six" horiz-adv-x="1073" d="M229 92Q170 152 144 233T117 430Q117 629 194 822T412 1151Q571 1303 770 1303Q890 1303 976 1244T1063 1106Q1063 1062 1040 1033T971 1004Q936 1004 913 1025T889 1081Q889 1129 928 1153Q882 1208
758 1208Q607 1208 475 1079Q391 1000 322 863T229 584Q254 624 288 659T369 727T480 781T616 801Q779 801 876 700T973 446Q973 326 910 220T738 49T502 -16Q339 -16 229 92ZM229 356Q229 241 301 166Q380 84 514 84Q656 84 757 190T858 438Q858 556 791 629T600
702Q441 702 335 598T229 356Z" />
<glyph unicode="7" glyph-name="seven" horiz-adv-x="964" d="M152 -252L66 -201L840 934H285L236 739H131L199 1026H967L991 979L152 -252Z" />
<glyph unicode="8" glyph-name="eight" horiz-adv-x="997" d="M446 -16Q286 -16 179 78T72 311Q72 451 163 547T397 680Q242 774 242 950Q242 1014 272 1077T355 1191T483 1272T643 1303Q796 1303 892 1213T989 985Q989 856 913 767T700 641Q885 544 885 356Q885
259 827 174T666 36T446 -16ZM586 705Q712 705 797 782T883 977Q883 1078 817 1142T635 1206Q511 1206 431 1129T350 934Q350 839 416 772T586 705ZM451 80Q591 80 681 162T772 362Q772 472 694 543T502 614Q361 614 272 528T182 324Q182 216 260 148T451 80Z"
/>
<glyph unicode="9" glyph-name="nine" horiz-adv-x="1073" d="M344 -256Q223 -256 137 -197T51 -59Q51 -15 74 14T143 43Q178 43 201 22T225 -35Q225 -82 186 -106Q233 -162 356 -162Q505 -162 633 -43Q722 39 789 174T877 444Q825 356 726 291T489 225Q327 225
230 326T133 580Q133 700 196 806T369 977T606 1042Q767 1042 877 934Q936 874 962 793T989 596Q989 395 918 214T727 -86Q639 -174 551 -215T344 -256ZM877 670Q877 787 807 860Q728 942 594 942Q451 942 350 835T248 588Q248 470 315 397T506 324Q665 324 771
428T877 670Z" />
<glyph unicode=":" glyph-name="colon" horiz-adv-x="417" d="M283 522Q237 522 207 554T176 633Q176 679 206 711T283 743Q328 743 358 711T389 633Q389 586 359 554T283 522ZM160 -16Q114 -16 84 16T53 94Q53 141 83 173T160 205Q205 205 235 173T266 94Q266
48 236 16T160 -16Z" />
<glyph unicode=";" glyph-name="semicolon" horiz-adv-x="417" d="M283 522Q237 522 207 554T176 633Q176 679 206 711T283 743Q328 743 358 711T389 633Q389 586 359 554T283 522ZM-76 -276L-98 -231Q6 -185 69 -117T137 0Q99 7 76 38T53 102Q53 145 82 175T158
205T236 170T268 82Q268 -21 182 -120T-76 -276Z" />
<glyph unicode="&lt;" glyph-name="less" horiz-adv-x="817" d="M539 172L104 506L115 547L686 872L735 795L252 520L602 250L539 172Z" />
<glyph unicode="=" glyph-name="equal" horiz-adv-x="817" d="M174 627L197 725H770L748 627H174ZM102 322L125 420H698L676 322H102Z" />
<glyph unicode="&gt;" glyph-name="greater" horiz-adv-x="817" d="M176 180L127 258L610 532L260 803L324 881L758 547L748 506L176 180Z" />
<glyph unicode="?" glyph-name="question" horiz-adv-x="903" d="M254 338L319 670Q455 674 562 709T731 799T826 915T858 1042Q858 1151 786 1210T602 1270Q516 1270 450 1236T367 1161Q389 1152 407 1130T426 1079Q426 1043 399 1017T334 991Q293 991 266 1022T238
1100Q238 1168 292 1231T433 1333T612 1372Q770 1372 871 1282T973 1051Q973 877 820 742T410 582L328 338H254ZM283 -16T240 -16T167 14T137 88T167 163T240 195Q282 195 312 163T342 88T313 15Z" />
<glyph unicode="@" glyph-name="at" horiz-adv-x="1642" d="M676 -356Q503 -356 370 -276T168 -60T98 242Q98 447 170 632T361 948T642 1156T977 1233Q1241 1233 1396 1076T1552 655Q1552 498 1500 365T1360 155T1169 78Q1080 78 1038 130T1006 250Q964 171 891
125T731 78Q616 78 541 156T465 367Q465 480 518 579T659 735T846 793Q946 793 1004 741T1075 618L1116 786H1212L1100 334Q1078 251 1097 206T1174 160Q1254 160 1322 232T1429 418T1468 657Q1468 876 1334 1016T975 1157Q817 1157 671 1086T418 893T246 600T182
240Q182 100 241 -17T415 -208T678 -281Q855 -281 1008 -199L1042 -266Q880 -356 676 -356ZM752 170Q834 170 902 222T1006 350T1042 506Q1042 598 990 649T848 700Q731 700 652 602T573 369Q573 275 619 223T752 170Z" />
<glyph unicode="A" glyph-name="A" horiz-adv-x="1445" d="M-53 0L-29 102H96L780 1245H621L645 1348H1202L1178 1245H1022L1178 102H1323L1298 0H885L909 102H1059L1010 483H446L221 102H395L371 0H-53ZM508 586H995L907 1255L508 586Z" />
<glyph unicode="B" glyph-name="B" horiz-adv-x="1236" d="M16 0L41 102H211L475 1245H285L309 1348H801Q948 1348 1053 1288Q1122 1248 1160 1183T1198 1036Q1198 900 1102 805T850 686Q958 656 1030 579T1102 391Q1102 239 987 133Q899 51 760 18Q684 0 592
0H16ZM477 745H664Q850 745 965 821T1081 1032Q1081 1150 975 1206Q899 1245 778 1245H592L477 745ZM328 102H606Q682 102 750 121Q846 146 913 213Q985 284 985 391T888 572T610 647H455L328 102Z" />
<glyph unicode="C" glyph-name="C" horiz-adv-x="1419" d="M729 -25Q611 -25 507 15T323 129T198 317T152 569Q152 726 213 874T377 1131T619 1306T909 1372Q1005 1372 1087 1349T1224 1291T1318 1211T1375 1126T1393 1049Q1393 986 1361 950T1286 913Q1242 913
1217 936T1192 997Q1192 1025 1211 1051T1260 1094Q1241 1158 1147 1213T903 1268Q792 1268 692 1228T517 1119T387 962T303 777T274 584Q274 347 402 215T741 82Q985 82 1188 274L1253 201Q1025 -25 729 -25Z" />
<glyph unicode="D" glyph-name="D" horiz-adv-x="1464" d="M16 0L41 102H211L475 1245H285L309 1348H731Q927 1348 1053 1303T1278 1159Q1342 1095 1378 1001T1415 799Q1415 638 1362 501T1206 262Q944 0 479 0H16ZM328 102H502Q695 102 848 157T1104 315Q1290
501 1290 793Q1290 883 1261 961T1182 1090Q1103 1168 999 1206T721 1245H592L328 102Z" />
<glyph unicode="E" glyph-name="E" horiz-adv-x="1204" d="M16 0L41 102H211L475 1245H285L309 1348H1276L1204 1042H1092L1139 1245H592L475 739H922L899 637H453L328 102H874L922 305H1034L965 0H16Z" />
<glyph unicode="F" glyph-name="F" horiz-adv-x="1159" d="M16 0L41 102H211L475 1245H285L309 1348H1260L1188 1042H1075L1122 1245H592L469 715H907L885 612H446L328 102H528L504 0H16Z" />
<glyph unicode="G" glyph-name="G" horiz-adv-x="1474" d="M1081 0L1108 123Q914 -25 678 -25Q449 -25 301 126T152 526Q152 688 213 842T377 1113T629 1301T942 1372Q1064 1372 1171 1334T1341 1235Q1419 1161 1419 1077Q1419 1021 1387 988T1313 954Q1269 954
1244 977T1219 1038Q1219 1099 1286 1135Q1268 1160 1243 1180Q1125 1268 936 1268Q816 1268 710 1225T525 1109T389 941T303 741T274 530Q274 331 386 205T698 78Q944 78 1133 236L1206 537H815L840 637H1343L1192 0H1081Z" />
<glyph unicode="H" glyph-name="H" horiz-adv-x="1589" d="M16 0L41 102H211L475 1245H285L309 1348H786L762 1245H592L477 745H1262L1374 1245H1184L1208 1348H1686L1661 1245H1491L1227 102H1417L1393 0H915L940 102H1110L1237 641H453L328 102H518L494 0H16Z" />
<glyph unicode="I" glyph-name="I" horiz-adv-x="714" d="M10 0L35 102H225L487 1245H297L322 1348H819L795 1245H604L342 102H532L508 0H10Z" />
<glyph unicode="J" glyph-name="J" horiz-adv-x="1144" d="M414 -25Q266 -25 163 59T59 289Q59 359 100 408T199 457Q237 457 262 434T287 377Q287 333 254 304T166 283Q158 195 231 137T424 78Q572 78 662 186Q736 279 772 444L954 1245H723L748 1348H1266L1241
1245H1071L883 426Q836 225 745 117Q624 -25 414 -25Z" />
<glyph unicode="K" glyph-name="K" horiz-adv-x="1335" d="M1309 1245L745 770L1063 102H1245L1221 0H981L653 696L418 496L328 102H518L494 0H16L41 102H211L475 1245H285L309 1348H786L762 1245H592L451 633L1169 1245H977L999 1348H1487L1464 1245H1309Z" />
<glyph unicode="L" glyph-name="L" horiz-adv-x="1130" d="M16 0L41 102H211L475 1245H285L309 1348H797L772 1245H592L328 102H827L879 315H991L918 0H16Z" />
<glyph unicode="M" glyph-name="M" horiz-adv-x="1789" d="M8 0L33 102H205L520 1245H322L346 1348H659L874 352L1550 1348H1853L1829 1245H1653L1440 102H1632L1608 0H1137L1161 102H1327L1532 1155L846 154H821L594 1155L315 102H502L477 0H8Z" />
<glyph unicode="N" glyph-name="N" horiz-adv-x="1556" d="M1145 -6L567 1159L324 102H514L489 0H16L41 102H211L475 1245H285L309 1348H598L1149 236L1380 1245H1190L1214 1348H1679L1655 1245H1491L1202 -6H1145Z" />
<glyph unicode="O" glyph-name="O" horiz-adv-x="1503" d="M711 -25Q580 -25 474 19T297 141T190 321T152 545T188 785T292 1010T450 1196T658 1325T903 1372Q1034 1372 1140 1328T1317 1206T1424 1026T1462 803Q1462 683 1426 562T1322 337T1164 151T956 22T711
-25ZM721 82Q892 82 1036 186T1261 455T1341 799Q1341 895 1314 978T1234 1126T1093 1228T893 1266Q764 1266 647 1204T449 1042T320 812T272 549Q272 453 299 370T380 222T521 120T721 82Z" />
<glyph unicode="P" glyph-name="P" horiz-adv-x="1146" d="M16 0L41 102H211L475 1245H285L309 1348H743Q833 1348 907 1329Q1047 1295 1116 1204T1186 985Q1186 888 1149 801T1044 648T869 543T635 504Q514 504 424 508L328 102H518L494 0H16ZM653 606Q756 606
838 638T969 723T1043 841T1069 975Q1069 1176 868 1229Q802 1245 727 1245H592L446 610Q546 606 653 606Z" />
<glyph unicode="Q" glyph-name="Q" horiz-adv-x="1503" d="M1462 803Q1462 666 1415 530T1285 283T1083 92T827 -12Q877 -92 962 -141T1149 -190Q1213 -190 1280 -156L1317 -256Q1228 -299 1147 -299Q1000 -299 881 -221T690 -25Q564 -21 462 24T292 147T188 326T152
545Q152 665 188 785T292 1010T450 1196T658 1325T903 1372Q1034 1372 1140 1328T1317 1206T1424 1026T1462 803ZM721 82Q892 82 1036 186T1261 455T1341 799Q1341 895 1314 978T1234 1126T1093 1228T893 1266Q764 1266 647 1204T449 1042T320 812T272 549Q272
453 299 370T380 222T521 120T721 82Z" />
<glyph unicode="R" glyph-name="R" horiz-adv-x="1232" d="M16 0L41 102H211L475 1245H285L309 1348H713Q975 1348 1098 1225Q1186 1136 1186 995Q1186 843 1081 732T791 582L1020 102H1178L1153 0H938L672 567Q645 565 588 565Q522 565 436 569L328 102H518L494
0H16ZM639 668Q837 668 953 758T1069 991Q1069 1092 1004 1157Q916 1245 707 1245H592L459 672Q557 668 639 668Z" />
<glyph unicode="S" glyph-name="S" horiz-adv-x="1114" d="M543 -25Q446 -25 358 3T212 74T120 168T86 268Q86 323 117 357T195 391Q233 391 259 365T285 309Q285 243 221 207Q256 154 341 116T551 78Q676 78 769 153T862 342Q862 388 845 428T791 504T720 565T631
625Q586 653 559 670T494 715T434 763T386 814T347 872T324 937T315 1012Q315 1159 436 1265T733 1372Q890 1372 1008 1294T1126 1114Q1126 1059 1095 1027T1024 995Q985 995 960 1020T934 1083Q934 1136 993 1171Q957 1211 888 1240T725 1270Q598 1270 515 1199T432
1020Q432 982 444 949T475 890T529 835T599 783T688 727Q756 685 798 654T887 576T956 473T979 350Q979 243 920 157T761 23T543 -25Z" />
<glyph unicode="T" glyph-name="T" horiz-adv-x="1296" d="M311 0L336 102H516L778 1245H403L354 1032H242L315 1348H1407L1333 1032H1221L1270 1245H895L633 102H834L809 0H311Z" />
<glyph unicode="U" glyph-name="U" horiz-adv-x="1482" d="M700 -25Q492 -25 379 81T266 365Q266 437 285 512L455 1245H264L289 1348H766L741 1245H571L401 506Q385 431 385 369Q385 235 463 157T711 78Q872 78 972 175T1108 434L1292 1245H1102L1126 1348H1604L1579
1245H1409L1219 416Q1173 214 1044 95T700 -25Z" />
<glyph unicode="V" glyph-name="V" horiz-adv-x="1413" d="M567 -23L367 1245H219L244 1348H657L633 1245H485L645 158L1300 1245H1139L1163 1348H1575L1550 1245H1423L637 -23H567Z" />
<glyph unicode="W" glyph-name="W" horiz-adv-x="1902" d="M428 -23L383 1245H240L264 1348H678L653 1245H485L514 188L1073 1174H1122L1235 186L1792 1245H1628L1653 1348H2064L2040 1245H1905L1231 -23H1165L1047 934L494 -23H428Z" />
<glyph unicode="X" glyph-name="X" horiz-adv-x="1445" d="M-25 0L0 102H158L725 700L463 1245H287L311 1348H788L764 1245H590L805 766L1253 1245H1081L1106 1348H1583L1559 1245H1389L854 682L1139 102H1307L1282 0H805L829 102H1012L778 621L293 102H477L453 0H-25Z" />
<glyph unicode="Y" glyph-name="Y" horiz-adv-x="1275" d="M250 0L276 102H473L584 551L350 1245H203L229 1348H655L633 1245H471L666 645L1155 1245H1001L1028 1348H1454L1432 1245H1290L692 530L592 102H788L766 0H250Z" />
<glyph unicode="Z" glyph-name="Z" horiz-adv-x="1239" d="M16 0V49L1143 1251H434L385 1042H272L342 1348H1329V1298L203 96H944L993 305H1106L1036 0H16Z" />
<glyph unicode="[" glyph-name="bracketleft" horiz-adv-x="677" d="M25 -410L469 1499H911L889 1403H561L160 -313H487L465 -410H25Z" />
<glyph unicode="\" glyph-name="backslash" horiz-adv-x="595" d="M342 -408L209 1491L315 1499L449 -399L342 -408Z" />
<glyph unicode="]" glyph-name="bracketright" horiz-adv-x="677" d="M-184 -410L-162 -313H166L567 1403H240L262 1499H702L258 -410H-184Z" />
<glyph unicode="^" glyph-name="asciicircum" horiz-adv-x="897" d="M281 772L233 834L592 1106L809 819L756 772L569 948L281 772Z" />
<glyph unicode="_" glyph-name="underscore" horiz-adv-x="1028" d="M-76 -287L-49 -180H1018L995 -287H-76Z" />
<glyph unicode="`" glyph-name="grave" horiz-adv-x="1024" d="M825 1032L584 1188Q526 1227 526 1274Q526 1305 548 1327T602 1350Q626 1350 645 1339T688 1294L858 1065L825 1032Z" />
<glyph unicode="a" glyph-name="a" horiz-adv-x="1130" d="M410 -16Q268 -16 180 80T92 340Q92 484 155 608T324 804T553 877Q669 877 743 818T836 653L887 870H993L834 215Q819 160 819 133Q819 103 837 85T883 66Q917 66 945 98T1001 201L1065 180Q1000 -12
868 -12Q801 -12 759 26T717 125V160Q656 79 578 32T410 -16ZM432 80Q538 80 623 151T752 323T795 522Q795 640 734 710T557 780Q457 780 376 717T251 554T207 342Q207 220 265 150T432 80Z" />
<glyph unicode="b" glyph-name="b" horiz-adv-x="1073" d="M72 0L399 1405H236L258 1499H528L340 694Q469 877 647 877Q790 877 884 777T979 514Q979 404 941 305T839 136T692 25T520 -16Q408 -16 330 44T227 203L178 0H72ZM518 80Q616 80 696 141T820 298T864
502Q864 630 802 705T629 780Q531 780 445 711T310 539T262 336Q262 222 331 151T518 80Z" />
<glyph unicode="c" glyph-name="c" horiz-adv-x="927" d="M459 -16Q300 -16 195 83T90 348Q90 481 154 603T331 801T573 877Q650 877 712 856T809 800T863 730T881 659Q881 615 853 584T784 553Q757 553 736 571T715 629Q715 646 728 667T762 696Q711 780 571
780Q473 780 387 719T250 559T199 350Q199 230 273 155T477 80Q550 80 625 112T762 203L756 90Q620 -16 459 -16Z" />
<glyph unicode="d" glyph-name="d" horiz-adv-x="1136" d="M94 342Q94 488 158 612T326 807T547 877Q660 877 740 818T838 653L1012 1405H848L870 1499H1141L840 215Q825 160 825 133Q825 102 841 84T887 66Q922 66 950 97T1008 201L1071 180Q1006 -12 874 -12Q808
-12 767 27T725 131Q725 150 727 160Q595 -16 420 -16Q277 -16 186 81T94 342ZM442 80Q545 80 629 148T757 315T801 518Q801 638 736 709T555 780Q455 780 375 718T252 556T209 344Q209 223 271 152T442 80Z" />
<glyph unicode="e" glyph-name="e" horiz-adv-x="962" d="M848 401H197Q195 383 195 346Q195 220 281 149T485 78Q561 78 623 95T768 158L743 47Q675 13 613 -1T467 -16Q310 -16 199 81T88 344Q88 486 155 609T333 805T569 877Q714 877 798 794T883 571Q883 500
848 401ZM561 780Q449 780 353 699T217 492H766Q782 540 782 590Q782 669 727 724T561 780Z" />
<glyph unicode="f" glyph-name="f" horiz-adv-x="620" d="M117 0L295 766H139L162 860H315L393 1192Q413 1275 441 1328T514 1427Q592 1505 711 1505Q777 1505 815 1477T854 1401Q854 1365 829 1341T772 1317Q732 1317 708 1342T684 1413Q625 1406 584 1364Q524
1304 494 1174L422 860H645L623 766H399L223 0H117Z" />
<glyph unicode="g" glyph-name="g" horiz-adv-x="1073" d="M362 -410Q280 -410 196 -381T76 -315Q33 -273 33 -227Q33 -186 57 -159T121 -131Q160 -131 182 -158T205 -221Q205 -253 186 -276Q257 -319 367 -319Q502 -319 584 -238Q661 -160 696 -6L739 178Q686
91 604 46T430 0Q286 0 190 97T94 356Q94 499 158 619T329 808T559 877Q677 877 752 815T846 653L897 870H1004L797 -20Q753 -207 662 -299Q551 -410 362 -410ZM451 96Q555 96 638 162T763 325T805 524Q805 643 740 711T559 780Q458 780 377 721T253 566T209 358Q209
239 274 168T451 96Z" />
<glyph unicode="h" glyph-name="h" horiz-adv-x="1062" d="M72 0L399 1405H236L258 1499H528L332 670Q387 760 464 818T633 877Q740 877 810 813T883 653Q883 597 862 518L780 215Q768 169 768 133Q768 103 786 85T831 66Q865 66 892 97T948 201L1012 180Q950
-12 819 -12Q751 -12 707 28T662 133Q662 172 676 225L758 532Q774 593 774 649Q772 708 729 746T618 784Q516 784 414 682T272 410L178 0H72Z" />
<glyph unicode="i" glyph-name="i" horiz-adv-x="577" d="M412 1049Q375 1049 350 1075T324 1139T349 1202T412 1229Q447 1229 472 1203T498 1139T473 1076T412 1049ZM291 -12Q223 -12 179 28T135 133Q135 172 152 225L303 766H131L156 860H436L256 215Q242 164
242 133Q242 103 259 85T305 66Q339 66 367 98T424 201L487 180Q422 -12 291 -12Z" />
<glyph unicode="j" glyph-name="j" horiz-adv-x="507" d="M-96 -410Q-152 -410 -191 -382T-231 -311Q-231 -273 -208 -250T-150 -227Q-117 -227 -95 -250T-72 -303Q-72 -315 -74 -319Q-15 -313 23 -279Q88 -223 121 -78L315 766H137L162 860H442L221 -96Q202 -181
175 -234T104 -332Q70 -366 17 -388T-96 -410ZM418 1049Q381 1049 356 1075T330 1139T355 1202T418 1229Q453 1229 478 1203T504 1139T479 1076T418 1049Z" />
<glyph unicode="k" glyph-name="k" horiz-adv-x="931" d="M178 0H72L399 1405H236L258 1499H528L276 424Q466 510 584 585T727 705Q707 714 694 737T680 780Q680 822 706 849T774 877Q812 877 838 850T864 778Q864 696 757 607T489 436L584 199Q614 119 637 92Q657
70 690 70Q753 70 788 227L856 205Q830 86 786 37T680 -12Q613 -12 567 29Q526 67 494 147L393 395L256 332L178 0Z" />
<glyph unicode="l" glyph-name="l" horiz-adv-x="542" d="M268 -12Q200 -12 157 28T113 133Q113 147 127 219L403 1405H242L264 1499H532L233 219Q219 147 219 133Q219 103 237 85T283 66Q317 66 344 97T401 201L465 180Q400 -12 268 -12Z" />
<glyph unicode="m" glyph-name="m" horiz-adv-x="1599" d="M96 0L289 766H125L150 860H414L358 653Q423 758 502 817T666 877Q766 877 826 820T889 662Q953 762 1034 819T1198 877Q1298 877 1361 813T1425 653Q1425 608 1401 518L1313 217Q1298 163 1298 133T1316
85T1362 66Q1396 66 1424 98T1481 201L1544 180Q1479 -12 1348 -12Q1279 -12 1236 28T1192 133Q1192 171 1208 227L1296 532Q1317 606 1317 649Q1317 709 1281 746T1182 784Q1084 784 986 683T842 408L735 0H629L766 532Q786 609 786 649Q786 708 749 746T649 784Q551
784 450 682T305 410L203 0H96Z" />
<glyph unicode="n" glyph-name="n" horiz-adv-x="1087" d="M836 -12Q767 -12 724 28T680 133Q680 171 696 227L784 532Q805 606 805 649Q805 708 763 746T655 784Q553 784 451 683T305 410L203 0H96L289 766H125L150 860H414L360 653Q499 877 672 877Q778 877
845 813T913 653Q913 608 889 518L801 217Q786 163 786 133T804 85T850 66Q884 66 912 98T969 201L1032 180Q967 -12 836 -12Z" />
<glyph unicode="o" glyph-name="o" horiz-adv-x="1028" d="M451 -16Q285 -16 188 90T90 352Q90 488 153 608T330 803T578 877Q743 877 840 771T938 508Q938 373 875 253T698 58T451 -16ZM457 80Q559 80 645 139T780 298T829 510Q829 631 757 705T571 780Q469 780
383 721T248 563T199 350Q199 229 271 155T457 80Z" />
<glyph unicode="p" glyph-name="p" horiz-adv-x="1103" d="M-127 -401L-104 -307H29L287 766H123L145 860H410L371 694Q499 877 678 877Q820 877 915 777T1010 514Q1010 404 971 305T869 136T722 25T551 -16Q443 -16 363 39T254 190L137 -307H326L303 -401H-127ZM549
80Q647 80 727 141T851 298T895 502Q895 630 832 705T659 780Q561 780 475 711T341 541T293 338Q293 223 362 152T549 80Z" />
<glyph unicode="q" glyph-name="q" horiz-adv-x="1075" d="M418 -16Q275 -16 184 82T92 344Q92 487 156 610T329 805T559 877Q670 877 747 818T844 657L893 860H999L727 -307H913L891 -401H596L729 160Q671 80 590 32T418 -16ZM440 80Q520 80 590 121T707 227T779
368T805 518Q805 637 742 708T565 780Q465 780 382 718T253 557T207 346Q207 225 269 153T440 80Z" />
<glyph unicode="r" glyph-name="r" horiz-adv-x="743" d="M96 0L289 766H125L150 860H414L356 627Q539 877 647 877Q697 877 724 852T752 786Q752 745 723 716T655 686Q621 686 597 705T565 756Q494 714 412 613T297 377L203 0H96Z" />
<glyph unicode="s" glyph-name="s" horiz-adv-x="839" d="M406 -16Q320 -16 239 15T109 96Q61 144 61 197Q61 235 85 264T147 293T203 271T223 219Q223 183 190 147Q200 136 227 119Q304 74 414 74Q492 74 544 113T596 215Q596 273 552 311T422 391Q380 412 358
424T302 456T251 493T215 533T188 582T180 639Q180 743 262 810T477 877Q557 877 624 853T733 786Q780 744 780 686Q780 645 756 619T698 592Q664 592 643 613T621 666Q621 702 647 737Q633 751 612 760Q556 786 469 786Q385 786 336 749T287 655Q287 605 330 570T467
487Q523 460 558 439T630 386T684 317T702 231Q702 116 615 50T406 -16Z" />
<glyph unicode="t" glyph-name="t" horiz-adv-x="663" d="M657 766H393L258 215Q248 170 248 141Q248 117 267 98T319 78Q353 78 395 98T506 164L551 100Q469 40 411 12T297 -16Q226 -16 181 24T135 127Q135 159 150 217L287 766H135L160 860H309L362 1071L477
1104L416 860H682L657 766Z" />
<glyph unicode="u" glyph-name="u" horiz-adv-x="1087" d="M139 860H410L264 303Q250 249 250 199Q250 145 289 111T393 76Q495 76 598 178T743 451L846 860H952L791 215Q776 160 776 133Q776 103 794 85T840 66Q874 66 902 98T958 201L1022 180Q957 -12 825 -12Q758
-12 718 27T678 133Q678 159 688 207Q552 -16 377 -16Q273 -16 207 42T141 195Q141 235 160 311L279 766H115L139 860Z" />
<glyph unicode="v" glyph-name="v" horiz-adv-x="935" d="M348 -35L207 766H45L70 860H307L418 115Q544 256 642 416T770 686Q736 693 712 718T688 780Q688 821 714 849T782 877Q826 877 854 846T883 756Q883 644 734 406T389 -35H348Z" />
<glyph unicode="w" glyph-name="w" horiz-adv-x="1331" d="M287 -35L217 766H59L84 860H309L360 164L713 748H745L883 137Q1131 504 1151 686Q1116 693 1092 717T1067 780Q1067 821 1093 849T1161 877Q1204 877 1233 847T1262 766Q1262 521 866 -35H829L698 567L326
-35H287Z" />
<glyph unicode="x" glyph-name="x" horiz-adv-x="1075" d="M127 -12Q77 -12 48 16T18 84Q18 120 44 146T104 172T160 152T190 98Q222 108 255 145T354 272L489 457L371 766H195L219 860H438L553 528L659 680Q797 877 911 877Q969 877 1000 849T1032 780Q1032 744
1006 718T946 692Q877 692 858 766Q814 750 715 616L592 449L696 197Q729 117 749 92T793 66Q815 66 840 99T885 199L946 180Q892 -12 776 -12Q717 -12 681 24T612 147L528 379L393 184Q320 79 259 34T127 -12Z" />
<glyph unicode="y" glyph-name="y" horiz-adv-x="970" d="M-37 -410Q-85 -410 -122 -381T-160 -307Q-160 -270 -136 -243T-74 -215Q-36 -215 -14 -240T12 -309H23Q64 -309 152 -235T373 2L219 766H59L82 860H315L453 104Q775 525 809 686Q775 696 750 723T725
788Q725 823 751 850T817 877Q860 877 889 846T918 756Q918 646 819 480T477 4Q293 -231 177 -320T-37 -410Z" />
<glyph unicode="z" glyph-name="z" horiz-adv-x="958" d="M57 -14L18 33L758 770H301L258 602H160L223 860H899L928 815L209 100Q264 123 336 123Q389 123 478 102T614 80Q674 80 703 114T768 250L831 236Q816 178 804 143T775 73T736 22T684 -5T610 -16Q553 -16
442 12T272 41Q205 41 158 28T57 -14Z" />
<glyph unicode="{" glyph-name="braceleft" horiz-adv-x="651" d="M387 -436Q235 -419 156 -329T76 -115Q76 -32 120 37T238 174Q279 212 300 234T340 288T360 348Q360 373 352 396T325 442T271 478T188 492H113L141 608H217Q320 608 381 660T442 786Q442 856
393 961Q336 1084 336 1178Q336 1247 366 1308T455 1419T611 1499T834 1532L813 1448Q716 1443 642 1417T526 1351T463 1269T442 1180Q442 1104 496 981Q547 861 547 786Q547 686 485 623T324 545Q397 523 432 471T467 354T428 234T322 115Q184 -11 184 -109Q184
-200 235 -261T408 -354L387 -436Z" />
<glyph unicode="|" glyph-name="bar" horiz-adv-x="540" d="M221 -410V1499H319V-410H221Z" />
<glyph unicode="}" glyph-name="braceright" horiz-adv-x="651" d="M-129 -432L-109 -348Q78 -338 170 -259T262 -80Q262 -2 209 119Q158 233 158 313Q158 413 220 477T381 555Q307 577 273 629T238 745Q238 810 277 867T383 985Q520 1111 520 1208Q520 1300 470
1362T297 1454L317 1536Q469 1518 549 1428T629 1214Q629 1073 467 926Q407 871 376 832T344 752Q344 697 385 653T516 608H592L563 492H487Q384 492 323 440T262 313Q262 248 311 139Q369 14 369 -78Q369 -147 339 -208T250 -319T94 -399T-129 -432Z" />
<glyph unicode="~" glyph-name="asciitilde" horiz-adv-x="942" d="M621 389Q569 389 532 410T457 471Q402 526 365 526Q296 526 250 399L166 428Q184 516 241 576T365 637Q417 637 455 615T535 551Q564 522 583 510T623 498Q690 498 735 627L821 598Q795 501
741 445T621 389Z" />
</font>
</defs>
</svg>
