<?xml version="1.0" standalone="no"?> <!DOCTYPE svg PUBLIC "-//W3C//DTD SVG 1.0//EN" "http://www.w3.org/TR/2001/REC-SVG-20010904/DTD/svg10.dtd" > <svg xmlns="http://www.w3.org/2000/svg" width="100%" height="100%">
<defs >
<font id="gothamrndmedital" horiz-adv-x="1034" ><font-face
    font-family="Gotham Rounded Medium"
    units-per-em="2048"
    panose-1="0 0 0 0 0 0 0 0 0 0"
    ascent="1638"
    descent="-409"
    alphabetic="0" />
<missing-glyph horiz-adv-x="1024" d="M0 -410V1638H1024V-410H0ZM145 1536L512 737L879 1536H145ZM102 -156L455 614L102 1384V-156ZM922 1384L569 614L922 -156V1384ZM512 492L145 -307H879L512 492Z" />
<glyph unicode=" " glyph-name="space" horiz-adv-x="614" />
<glyph unicode="!" glyph-name="exclam" horiz-adv-x="620" d="M668 1350L375 506Q350 442 293 442Q259 442 241 464T229 526L385 1354Q393 1392 418 1416T477 1440H614Q650 1440 666 1414T668 1350ZM348 156L340 121Q326 60 283 25T178 -10Q114 -10 78 30T53
127L61 162Q76 222 118 257T223 293Q287 293 324 252T348 156Z" />
<glyph unicode="&quot;" glyph-name="quotedbl" horiz-adv-x="1009" d="M362 872Q329 809 274 809Q242 809 228 831T223 887L352 1329Q367 1379 400 1409T483 1440H551Q606 1440 618 1400T602 1315L362 872ZM819 872Q806 845 783 827T733 809Q701 809 686 832T682
887L811 1329Q824 1378 858 1409T942 1440H1010Q1047 1440 1064 1421T1079 1374T1061 1315L819 872Z" />
<glyph unicode="#" glyph-name="numbersign" horiz-adv-x="1406" d="M528 543H848L973 899H651L528 543ZM803 1329L727 1112H1047L1133 1356Q1146 1395 1180 1419T1255 1444Q1306 1444 1332 1410T1341 1329L1266 1112H1341Q1385 1112 1416 1081T1448 1006T1416
931T1341 899H1192L1067 543H1165Q1210 543 1241 512T1272 436Q1272 393 1241 362T1165 330H993L905 78Q893 40 860 15T786 -10Q735 -10 708 24T696 104L774 330H455L367 78Q353 41 321 16T246 -10Q195 -10 168 23T158 104L236 330H162Q117 330 86 361T55 436T86
511T162 543H309L434 899H334Q290 899 259 930T227 1006Q227 1049 259 1080T334 1112H508L594 1356Q608 1396 640 1420T713 1444Q764 1444 791 1410T803 1329Z" />
<glyph unicode="$" glyph-name="dollar" horiz-adv-x="1292" d="M379 -98L412 18Q199 61 74 176Q20 219 20 279Q20 329 55 363T143 397Q186 397 227 365Q333 265 483 231L598 631Q511 664 453 695T347 769T275 871T252 1004Q252 1187 406 1310T788 1434Q817 1434
827 1432L840 1475Q869 1563 940 1563Q985 1563 1006 1533T1014 1450L1001 1409Q1133 1382 1245 1294Q1275 1273 1291 1251T1307 1194Q1307 1143 1271 1109T1182 1075Q1142 1075 1098 1106Q1023 1166 930 1192L821 811Q992 748 1075 663T1159 436Q1159 309 1086
209T885 55T598 0H586L551 -123Q520 -213 451 -213Q405 -213 385 -182T379 -98ZM672 868L770 1214Q651 1218 581 1165T510 1030Q510 977 546 942T672 868ZM643 219Q761 222 830 273T899 412Q899 464 865 501T748 575L643 219Z" />
<glyph unicode="%" glyph-name="percent" horiz-adv-x="1765" d="M483 709Q346 709 262 795T178 1018Q178 1126 227 1224T369 1386T573 1450Q709 1450 794 1364T879 1141Q879 1033 830 935T688 773T483 709ZM1286 -16Q1151 -16 1066 71T981 293Q981 402 1030 500T1172
662T1376 725Q1513 725 1597 639T1681 418Q1681 309 1632 210T1490 48T1286 -16ZM494 860Q555 860 605 902T681 1006T707 1133Q707 1210 669 1254T561 1298Q501 1298 451 1256T375 1152T348 1026Q348 949 387 905T494 860ZM1296 135Q1357 135 1407 177T1484 282T1511
408Q1511 485 1472 530T1366 575Q1275 575 1213 489T1151 301Q1151 225 1190 180T1296 135ZM1608 1303L375 27Q338 -10 299 -10Q266 -10 244 10T221 63Q221 102 252 131L1485 1409Q1520 1446 1561 1446Q1594 1446 1616 1425T1638 1370Q1638 1336 1608 1303Z" />
<glyph unicode="&amp;" glyph-name="ampersand" horiz-adv-x="1421" d="M698 879Q860 930 923 985T987 1114Q987 1174 944 1217T825 1260Q741 1260 685 1204T629 1069Q629 983 698 879ZM522 188Q670 188 844 317L590 668Q441 621 367 542T293 373Q293 289 353
239T522 188ZM1059 27L963 160Q737 -20 494 -20Q299 -20 175 81T51 356Q51 506 159 627T487 815Q406 952 406 1071Q406 1232 527 1345T838 1458Q1006 1458 1110 1366T1214 1128Q1214 863 807 733L1006 459Q1085 548 1151 645Q1194 705 1243 705Q1282 705 1309 682T1337
621Q1337 585 1317 553Q1223 412 1126 307L1221 174Q1260 123 1260 88Q1260 41 1229 11T1151 -20Q1093 -20 1059 27Z" />
<glyph unicode="&apos;" glyph-name="quotesingle" horiz-adv-x="550" d="M362 872Q329 809 274 809Q242 809 228 831T223 887L352 1329Q367 1379 400 1409T483 1440H551Q606 1440 618 1400T602 1315L362 872Z" />
<glyph unicode="(" glyph-name="parenleft" horiz-adv-x="903" d="M623 -86Q653 -124 653 -170Q653 -215 623 -244T545 -274Q489 -274 457 -242Q143 56 143 434Q143 750 334 1010T887 1438Q915 1452 948 1452Q993 1452 1022 1424T1051 1350Q1051 1286 981 1249Q693
1102 545 893T397 442Q397 289 455 165T623 -86Z" />
<glyph unicode=")" glyph-name="parenright" horiz-adv-x="903" d="M305 1264Q274 1302 274 1348Q274 1393 304 1422T383 1452Q440 1452 471 1419Q784 1123 784 745Q784 429 593 169T41 -260Q13 -274 -20 -274Q-65 -274 -94 -246T-123 -172Q-123 -106 -53 -70Q235
76 382 286T530 737Q530 888 472 1013T305 1264Z" />
<glyph unicode="*" glyph-name="asterisk" horiz-adv-x="880" d="M602 1024L573 844Q570 812 552 795T506 778Q470 778 453 806T451 870L518 1047L348 981Q321 971 301 971Q276 971 258 988T238 1032Q236 1060 253 1079T301 1102L496 1133L344 1253Q309 1283 309
1313Q309 1340 328 1360T377 1380Q413 1380 436 1350L557 1196L586 1374Q595 1442 653 1442Q693 1442 709 1415T709 1348L641 1174L811 1239Q838 1249 862 1249Q888 1249 904 1232T922 1188Q922 1126 858 1116L664 1087L813 969Q850 941 850 907Q850 880 831 860T782
840Q748 840 723 872L602 1024Z" />
<glyph unicode="+" glyph-name="plus" horiz-adv-x="1298" d="M784 608L711 332Q694 273 659 240T578 207Q518 207 491 247T483 360L551 608H291Q243 608 210 640T176 721Q176 767 209 800T291 834H610L684 1112Q701 1170 736 1202T817 1235Q877 1235 904 1194T911
1081L846 834H1104Q1151 834 1185 801T1219 721Q1219 675 1185 642T1104 608H784Z" />
<glyph unicode="," glyph-name="comma" horiz-adv-x="600" d="M-63 -184Q111 -138 129 0Q28 26 47 133L55 160Q68 221 110 257T211 293Q283 293 315 245T330 113L322 78Q284 -97 160 -201Q114 -241 55 -266T-57 -295Q-89 -298 -105 -283T-121 -242Q-121 -198 -63 -184Z" />
<glyph unicode="-" glyph-name="hyphen" horiz-adv-x="841" d="M637 506H252Q202 506 167 542T131 627Q131 677 167 713T252 750H637Q688 750 724 714T760 627T724 542T637 506Z" />
<glyph unicode="." glyph-name="period" horiz-adv-x="600" d="M340 156L332 121Q318 60 275 25T170 -10Q106 -10 70 30T45 127L53 162Q68 222 110 257T215 293Q279 293 315 252T340 156Z" />
<glyph unicode="/" glyph-name="slash" horiz-adv-x="1067" d="M-147 -100L1108 1579Q1157 1647 1219 1647Q1259 1647 1282 1624T1305 1563T1266 1473L10 -207Q-37 -274 -100 -274Q-140 -274 -162 -252T-184 -190Q-184 -149 -147 -100Z" />
<glyph unicode="0" glyph-name="zero" horiz-adv-x="1482" d="M676 -25Q430 -25 285 134T139 553Q139 661 163 770T232 980T344 1168T494 1319T680 1421T899 1458Q1145 1458 1289 1300T1434 881Q1434 751 1401 621T1301 375T1145 170T934 28T676 -25ZM694 203Q795
203 886 265T1040 425T1138 643T1174 881Q1174 1043 1096 1137T879 1231Q778 1231 687 1169T534 1009T436 791T399 553Q399 391 477 297T694 203Z" />
<glyph unicode="1" glyph-name="one" horiz-adv-x="827" d="M797 1317L473 113Q458 55 421 23T334 -10Q271 -10 243 33T233 152L512 1182L354 1139Q330 1135 317 1135Q276 1135 247 1163T217 1239Q217 1277 241 1308T307 1352L569 1430Q646 1452 698 1452H700Q757
1452 784 1414T797 1317Z" />
<glyph unicode="2" glyph-name="two" horiz-adv-x="1241" d="M928 0H102Q42 0 5 28T-33 111Q-33 181 33 227L764 754Q879 837 932 906T985 1051Q985 1132 927 1179T768 1227Q610 1227 465 1096Q422 1057 377 1057Q329 1057 297 1090T264 1171Q264 1221 307 1262Q519
1454 778 1454Q988 1454 1116 1349T1245 1075Q1245 945 1171 839T920 606L387 221H928Q974 221 1006 189T1038 111T1006 33T928 0Z" />
<glyph unicode="3" glyph-name="three" horiz-adv-x="1239" d="M47 160Q6 205 6 252Q6 301 42 337T127 373Q172 373 211 336Q275 267 340 235T512 203Q649 203 741 275T834 451Q834 549 750 600T516 651H504Q459 651 434 676T408 745Q408 794 463 838L909 1214H428Q384
1214 352 1246T319 1323Q319 1369 351 1401T428 1434H1165Q1222 1434 1256 1408T1290 1333Q1290 1291 1270 1264T1206 1202L750 827Q905 801 997 713T1090 473Q1090 334 1012 220T798 40T500 -25Q203 -25 47 160Z" />
<glyph unicode="4" glyph-name="four" horiz-adv-x="1341" d="M362 528H819L973 1100L362 528ZM1004 322L948 113Q933 55 897 23T813 -10Q753 -10 726 33T719 152L764 322H158Q104 322 69 350T33 428Q33 501 100 565L981 1372Q1070 1454 1163 1454Q1223 1454 1255
1418T1272 1323L1059 528H1143Q1186 528 1216 498T1247 424Q1247 381 1217 352T1143 322H1004Z" />
<glyph unicode="5" glyph-name="five" horiz-adv-x="1243" d="M80 141Q29 188 29 244Q29 293 62 327T145 362Q190 362 236 326Q355 205 535 205Q683 205 780 286T877 481Q877 579 802 640T596 702Q557 702 522 696T445 676T387 659Q332 656 276 698Q218 745 242
817L414 1335Q447 1434 537 1434H1151Q1197 1434 1230 1401T1264 1321T1231 1243T1151 1210H610L502 881Q593 913 686 913Q889 913 1013 803T1137 506Q1137 402 1092 306T968 137T770 21T514 -23Q391 -23 278 21T80 141Z" />
<glyph unicode="6" glyph-name="six" horiz-adv-x="1314" d="M1274 1350Q1331 1316 1331 1245Q1331 1196 1297 1162T1214 1128Q1189 1128 1135 1155Q1029 1231 899 1231Q720 1231 594 1102Q530 1038 482 948T416 762Q470 828 569 874T780 920Q973 920 1098 808T1223
514Q1223 410 1178 312T1057 139T872 20T643 -25Q533 -25 439 9T281 106Q135 252 135 508Q135 722 210 918T418 1247Q632 1458 920 1458Q1120 1458 1274 1350ZM645 190Q784 190 875 278T967 485Q967 583 898 648T711 713Q566 713 474 628T381 426Q381 327 446 264Q522
190 645 190Z" />
<glyph unicode="7" glyph-name="seven" horiz-adv-x="1228" d="M1253 1208L401 70Q340 -10 264 -10Q215 -10 187 15T158 86Q158 134 199 190L975 1212H397Q351 1212 318 1244T285 1323T318 1401T397 1434H1196Q1252 1434 1281 1410T1311 1341Q1311 1280 1253 1208Z" />
<glyph unicode="8" glyph-name="eight" horiz-adv-x="1343" d="M612 -20Q462 -20 339 30T143 171T70 377Q70 535 177 634T459 772Q372 812 321 888T270 1057Q270 1131 306 1201T409 1328T577 1419T801 1454Q1020 1454 1159 1348T1298 1075Q1298 938 1209 842T969
713Q1071 674 1134 593T1198 401Q1198 317 1156 241T1040 107T854 15T612 -20ZM772 829Q899 829 979 893T1059 1047Q1061 1132 988 1188T791 1245Q670 1245 590 1184T508 1030Q506 945 580 887T772 829ZM625 186Q766 186 857 249T950 414Q950 504 865 565T643 627Q500
627 410 561T319 397Q317 305 402 246T625 186Z" />
<glyph unicode="9" glyph-name="nine" horiz-adv-x="1314" d="M498 -25Q288 -25 131 94Q66 136 66 203Q66 252 99 285T182 319Q215 319 262 291Q381 201 512 201Q687 201 817 334Q880 395 925 480T991 657Q934 592 838 545T627 498Q433 498 309 610T184 909Q185
1058 261 1184T471 1384T766 1458Q872 1458 969 1424T1128 1327Q1274 1186 1274 905Q1274 700 1198 511T987 186Q779 -25 498 -25ZM702 707Q843 707 935 795T1028 1004Q1028 1104 963 1169Q889 1243 764 1243Q622 1243 531 1154T440 938Q440 836 510 772T702 707Z"
/>
<glyph unicode=":" glyph-name="colon" horiz-adv-x="606" d="M342 156L334 121Q320 60 277 25T172 -10Q108 -10 72 30T47 127L55 162Q70 222 112 257T217 293Q281 293 317 252T342 156ZM557 956L549 922Q535 861 492 826T387 791Q323 791 287 831T262 928L270
963Q285 1022 327 1058T432 1094Q496 1094 532 1053T557 956Z" />
<glyph unicode=";" glyph-name="semicolon" horiz-adv-x="606" d="M-61 -184Q113 -139 131 0Q30 27 51 133L57 160Q71 221 113 257T213 293Q285 293 317 244T332 113L324 78Q286 -96 164 -201Q116 -241 57 -266T-55 -295Q-87 -298 -102 -283T-117 -242Q-117 -198
-61 -184ZM557 956L549 922Q535 861 492 826T387 791Q323 791 287 831T262 928L270 963Q285 1022 327 1058T432 1094Q496 1094 532 1053T557 956Z" />
<glyph unicode="&lt;" glyph-name="less" horiz-adv-x="1298" d="M287 860L1120 1214Q1156 1231 1190 1231Q1231 1231 1257 1207T1284 1141Q1284 1068 1212 1036L426 711L995 408Q1033 388 1048 365T1063 305Q1063 258 1032 226T954 193Q926 193 889 209L281 545Q228
575 200 609T172 694V702Q172 811 287 860Z" />
<glyph unicode="=" glyph-name="equal" horiz-adv-x="1298" d="M393 862Q346 862 313 895T279 977Q279 1023 312 1057T393 1092H1143Q1190 1092 1223 1058T1257 977Q1257 929 1224 896T1143 862H393ZM256 350Q209 350 175 383T141 465Q141 512 175 546T256 580H1006Q1053
580 1086 546T1120 465Q1120 417 1087 384T1006 350H256Z" />
<glyph unicode="&gt;" glyph-name="greater" horiz-adv-x="1298" d="M1104 582L270 227Q230 209 201 209Q160 209 133 234T106 301Q106 374 176 406L963 731L395 1034Q358 1054 343 1077T328 1137Q328 1184 358 1216T436 1249Q460 1249 500 1233L1110 895Q1162
867 1190 833T1219 748V737Q1219 630 1104 582Z" />
<glyph unicode="?" glyph-name="question" horiz-adv-x="1107" d="M399 1133Q348 1102 311 1102Q268 1102 240 1132T211 1202Q211 1264 264 1305Q452 1452 694 1452Q896 1452 1016 1345T1137 1083Q1137 899 998 784T606 631L567 522Q553 486 526 464T465 442H453Q418
442 399 466T383 530L412 717Q416 757 441 777T518 805Q678 826 775 889T872 1055Q872 1135 817 1179T662 1223Q533 1223 399 1133ZM522 156L514 121Q500 60 457 25T352 -10Q288 -10 252 30T227 127L236 162Q250 222 292 257T397 293Q461 293 498 252T522 156Z"
/>
<glyph unicode="@" glyph-name="at" horiz-adv-x="2007" d="M934 309Q1057 309 1158 416T1260 664Q1260 753 1204 807T1055 862Q933 862 839 757T745 506Q745 415 796 362T934 309ZM1407 -229Q1209 -322 975 -322Q724 -322 529 -221T227 61T119 475Q119 670 197
851T409 1167T728 1381T1120 1462Q1307 1462 1463 1405T1722 1251T1882 1025T1939 752Q1939 601 1899 481T1791 287T1643 176T1475 137Q1370 137 1299 183T1200 309Q1043 135 856 135Q717 135 623 227T528 479Q528 596 572 701T688 880T852 995T1038 1038Q1235
1038 1321 872L1337 926Q1371 1026 1450 1026Q1497 1026 1523 989T1532 899L1395 463Q1362 355 1397 291T1522 227Q1577 227 1635 261T1743 359T1826 525T1858 752Q1858 881 1807 996T1662 1198T1429 1335T1120 1386Q932 1386 761 1312T467 1113T273 822T201 475Q201
264 298 100T571 -155T975 -246Q1177 -246 1368 -166Q1377 -160 1393 -160Q1408 -160 1419 -170T1430 -197Q1430 -218 1407 -229Z" />
<glyph unicode="A" glyph-name="A" horiz-adv-x="1552" d="M557 569H1063L965 1149L557 569ZM1176 1333L1386 176Q1395 136 1395 111Q1395 61 1358 26T1266 -10Q1215 -10 1182 18T1143 92L1100 346H401L207 70Q148 -10 78 -10Q30 -10 2 17T-27 90Q-27 133 4 172L852
1352Q923 1454 1030 1454H1036Q1151 1454 1176 1333Z" />
<glyph unicode="B" glyph-name="B" horiz-adv-x="1468" d="M510 829H864Q1016 829 1102 886T1188 1049Q1188 1126 1128 1168T950 1210H610L510 829ZM346 223H762Q912 223 998 282T1085 446Q1085 527 1018 571T834 616H451L346 223ZM727 0H184Q121 0 92 43T82 160L389
1307Q406 1366 444 1400T532 1434H973Q1201 1434 1321 1339T1442 1090Q1442 947 1353 852T1114 725Q1337 639 1337 432Q1337 238 1175 119T727 0Z" />
<glyph unicode="C" glyph-name="C" horiz-adv-x="1495" d="M1288 147Q1198 68 1073 22T801 -25Q616 -25 470 48T239 261T154 586Q154 756 222 916T406 1195T683 1386T1020 1458Q1320 1458 1499 1257Q1550 1212 1550 1151Q1550 1098 1513 1060T1421 1022Q1362 1022
1331 1061Q1265 1142 1188 1184T991 1227Q878 1227 772 1175T588 1038T463 836T416 596Q416 421 525 315T807 209Q907 209 976 237T1133 330Q1180 360 1219 360Q1267 360 1300 326T1333 242Q1333 185 1288 147Z" />
<glyph unicode="D" glyph-name="D" horiz-adv-x="1587" d="M352 229H584Q743 229 878 279T1108 424Q1268 584 1268 819Q1268 984 1167 1083Q1048 1204 795 1204H616L352 229ZM532 1434H813Q1189 1434 1374 1247Q1530 1092 1530 829Q1530 668 1471 525T1298 268Q1030
0 553 0H184Q121 0 92 43T82 160L389 1307Q406 1366 444 1400T532 1434Z" />
<glyph unicode="E" glyph-name="E" horiz-adv-x="1351" d="M1030 0H184Q121 0 92 43T82 160L389 1307Q406 1366 444 1400T532 1434H1343Q1389 1434 1422 1401T1456 1321Q1456 1273 1423 1241T1343 1208H614L514 834H1090Q1137 834 1170 801T1204 721Q1204 675
1171 643T1090 610H455L350 225H1030Q1076 225 1109 192T1143 113Q1143 65 1110 33T1030 0Z" />
<glyph unicode="F" glyph-name="F" horiz-adv-x="1353" d="M532 1434H1356Q1403 1434 1436 1400T1470 1319Q1470 1271 1437 1238T1356 1204H614L510 813H1096Q1145 813 1178 780T1212 698Q1212 651 1179 618T1096 584H449L324 115Q307 56 269 23T182 -10Q119 -10
89 32T80 147L389 1307Q406 1366 444 1400T532 1434Z" />
<glyph unicode="G" glyph-name="G" horiz-adv-x="1601" d="M1475 641L1352 211Q1339 163 1316 132T1247 76Q1168 32 1054 4T809 -25Q681 -25 565 14T355 129T207 323T152 592Q152 724 195 852T318 1089T506 1281T752 1411T1040 1458Q1210 1458 1337 1409T1538
1282Q1587 1239 1587 1180Q1587 1129 1552 1093T1464 1057Q1415 1057 1382 1085Q1308 1154 1226 1190T1022 1227Q896 1227 782 1175T589 1036T463 836T416 600Q416 416 530 312T825 207Q996 207 1128 281L1217 582H965Q918 582 886 613T854 690T886 768T965 801H1372Q1436
801 1465 757T1475 641Z" />
<glyph unicode="H" glyph-name="H" horiz-adv-x="1548" d="M1563 1282L1249 113Q1233 55 1196 23T1108 -10Q1045 -10 1016 33T1006 152L1128 604H455L322 113Q306 55 269 23T182 -10Q118 -10 89 33T80 152L393 1321Q410 1379 447 1411T535 1444Q598 1444 627 1401T637
1282L518 838H1192L1321 1321Q1336 1379 1373 1411T1460 1444Q1523 1444 1553 1400T1563 1282Z" />
<glyph unicode="I" glyph-name="I" horiz-adv-x="649" d="M651 1282L336 113Q320 55 283 23T197 -10Q133 -10 104 33T94 152L408 1321Q424 1379 461 1411T549 1444Q612 1444 641 1401T651 1282Z" />
<glyph unicode="J" glyph-name="J" horiz-adv-x="1155" d="M1190 1282L991 543Q949 384 905 292T788 127Q638 -20 389 -20Q277 -20 180 24T14 154Q-29 197 -29 248Q-29 298 6 333T90 369Q138 369 182 328Q262 213 401 213Q530 213 618 301Q659 342 689 407T754
600L946 1321Q963 1379 1000 1411T1087 1444Q1150 1444 1180 1401T1190 1282Z" />
<glyph unicode="K" glyph-name="K" horiz-adv-x="1470" d="M393 381L322 113Q306 55 269 23T182 -10Q118 -10 89 33T80 152L393 1321Q410 1379 447 1411T535 1444Q598 1444 627 1401T637 1282L483 711L1313 1397Q1367 1444 1417 1444Q1470 1444 1501 1412T1532
1331Q1532 1273 1487 1237L954 805L1249 186Q1270 144 1270 102Q1270 52 1233 21T1145 -10Q1056 -10 1016 78L748 664L393 381Z" />
<glyph unicode="L" glyph-name="L" horiz-adv-x="1265" d="M973 0H184Q121 0 92 43T82 160L393 1321Q410 1379 447 1411T535 1444Q598 1444 627 1401T637 1282L354 229H973Q1020 229 1053 196T1087 115Q1087 66 1054 33T973 0Z" />
<glyph unicode="M" glyph-name="M" horiz-adv-x="1777" d="M1669 1442H1690Q1754 1442 1783 1398T1792 1278L1479 113Q1463 55 1425 23T1335 -10Q1273 -10 1243 33T1233 152L1452 971L987 475Q917 399 852 399Q812 399 787 420T743 489L551 971L322 115Q306 56
269 23T182 -10Q118 -10 89 33T80 152L391 1311Q428 1442 535 1442H549Q638 1442 678 1339L930 694L1513 1360Q1587 1442 1669 1442Z" />
<glyph unicode="N" glyph-name="N" horiz-adv-x="1609" d="M1143 420L1386 1321Q1402 1380 1438 1412T1526 1444Q1589 1444 1617 1401T1626 1282L1309 109Q1278 -8 1176 -8H1171Q1116 -8 1084 15T1028 88L567 1042L317 113Q302 55 266 23T180 -10Q117 -10 88 33T80
152L391 1315Q428 1442 541 1442H553Q656 1442 702 1337L1143 420Z" />
<glyph unicode="O" glyph-name="O" horiz-adv-x="1712" d="M799 -25Q657 -25 537 23T333 156T203 356T156 604Q156 733 196 859T312 1092T491 1282T727 1411T1006 1458Q1148 1458 1269 1410T1474 1278T1604 1078T1651 829Q1651 700 1611 574T1494 341T1314 151T1078
22T799 -25ZM825 207Q945 207 1052 261T1232 401T1347 596T1389 815Q1389 996 1279 1111T981 1227Q861 1227 754 1173T575 1033T460 837T418 618Q418 436 527 322T825 207Z" />
<glyph unicode="P" glyph-name="P" horiz-adv-x="1380" d="M418 465L322 113Q306 55 269 23T182 -10Q118 -10 89 33T80 152L389 1307Q406 1366 444 1400T532 1434H877Q1172 1434 1311 1292Q1417 1186 1417 1010Q1417 841 1326 716T1078 528T717 465H418ZM477 688H731Q927
688 1041 767T1155 989Q1155 1076 1100 1130Q1027 1204 868 1204H614L477 688Z" />
<glyph unicode="Q" glyph-name="Q" horiz-adv-x="1712" d="M1118 598L1245 424Q1313 505 1351 608T1389 815Q1389 996 1279 1111T981 1227Q861 1227 754 1173T575 1033T460 837T418 618Q418 436 527 322T825 207Q955 207 1069 272L946 422Q945 424 938 434T928
447T920 460T912 476T907 490T902 508T901 526Q901 577 936 613T1024 649Q1086 649 1118 598ZM1266 -4L1200 80Q1014 -25 799 -25Q657 -25 537 23T333 156T203 356T156 604Q156 733 196 859T312 1092T491 1282T727 1411T1006 1458Q1148 1458 1269 1410T1474 1278T1604
1078T1651 829Q1651 660 1583 500T1391 219L1444 158Q1485 111 1485 59Q1485 8 1452 -25T1366 -59Q1297 -59 1266 -4Z" />
<glyph unicode="R" glyph-name="R" horiz-adv-x="1480" d="M426 500L322 113Q306 55 269 23T182 -10Q118 -10 89 33T80 152L389 1307Q406 1366 444 1400T532 1434H944Q1242 1434 1378 1294Q1483 1191 1483 1024Q1483 824 1352 696Q1235 576 1008 526L1210 188Q1239
148 1239 104Q1239 51 1202 21T1116 -10Q1020 -10 973 72L725 500H426ZM487 723H811Q1043 723 1149 831Q1221 905 1221 1004Q1221 1080 1169 1135Q1097 1204 930 1204H616L487 723Z" />
<glyph unicode="S" glyph-name="S" horiz-adv-x="1304" d="M621 203Q741 203 819 258T897 401Q897 466 841 512T633 618Q544 654 482 688T368 769T290 873T264 1004Q264 1136 337 1239T536 1398T815 1454Q965 1454 1069 1416T1260 1313Q1317 1268 1317 1206Q1317
1154 1281 1119T1194 1083Q1148 1083 1120 1110Q1046 1172 970 1201T797 1231Q676 1231 603 1175T530 1042Q530 975 588 931T809 823Q897 789 958 755T1068 675T1141 571T1165 438Q1165 302 1088 196T885 35T606 -20T315 24T74 164Q25 204 25 268Q25 322 59 358T147
395Q196 395 231 362Q323 277 411 240T621 203Z" />
<glyph unicode="T" glyph-name="T" horiz-adv-x="1267" d="M932 1200L639 113Q623 55 586 23T500 -10Q436 -10 407 33T397 152L680 1200H362Q315 1200 281 1234T246 1317Q246 1364 280 1399T362 1434H1313Q1360 1434 1395 1399T1430 1317Q1430 1269 1395 1235T1313
1200H932Z" />
<glyph unicode="U" glyph-name="U" horiz-adv-x="1560" d="M1589 1282L1399 580Q1327 307 1176 156Q997 -23 707 -23Q457 -23 317 104T176 451Q176 555 209 678L379 1321Q395 1379 433 1411T520 1444Q583 1444 612 1401T623 1282L451 643Q430 553 430 485Q430
362 508 287T731 211Q893 211 999 317Q1107 425 1157 618L1346 1321Q1361 1379 1399 1411T1487 1444Q1550 1444 1579 1401T1589 1282Z" />
<glyph unicode="V" glyph-name="V" horiz-adv-x="1476" d="M1575 1274L756 84Q683 -20 586 -20H575Q473 -20 455 94L274 1268Q268 1295 268 1329Q268 1379 305 1411T401 1444T494 1414T535 1327L666 338L1354 1362Q1404 1444 1487 1444Q1537 1444 1568 1421T1599
1352Q1599 1308 1575 1274Z" />
<glyph unicode="W" glyph-name="W" horiz-adv-x="2248" d="M2345 1272L1599 84Q1537 -20 1432 -20H1421Q1311 -20 1305 92L1237 1008L676 84Q611 -20 512 -20H500Q448 -20 418 9T383 92L279 1268Q274 1295 274 1327Q274 1377 311 1410T406 1444Q461 1444 495 1416T530
1337L600 371L1182 1350Q1210 1399 1243 1423T1325 1448H1339Q1391 1448 1420 1422T1452 1348L1516 371L2114 1360Q2163 1444 2251 1444Q2302 1444 2334 1416T2367 1341Q2367 1312 2345 1272Z" />
<glyph unicode="X" glyph-name="X" horiz-adv-x="1429" d="M922 713L1194 207Q1227 150 1227 111Q1227 60 1190 25T1100 -10Q1012 -10 969 78L737 539L254 59Q220 23 192 7T125 -10Q80 -10 48 19T16 100Q16 154 66 201L614 743L350 1227Q319 1285 319 1323Q319
1374 356 1409T446 1444Q535 1444 575 1356L803 911L1260 1376Q1293 1410 1322 1427T1389 1444Q1434 1444 1465 1414T1497 1335Q1497 1282 1452 1237L922 713Z" />
<glyph unicode="Y" glyph-name="Y" horiz-adv-x="1341" d="M782 535L670 113Q653 55 616 23T528 -10Q465 -10 436 33T426 152L537 561L254 1231Q229 1291 229 1325Q229 1376 267 1410T365 1444Q453 1444 487 1346L709 780L1262 1374Q1331 1446 1399 1446Q1448
1446 1476 1418T1505 1341Q1505 1286 1460 1241L782 535Z" />
<glyph unicode="Z" glyph-name="Z" horiz-adv-x="1394" d="M53 225L1106 1210H444Q398 1210 365 1242T332 1321T365 1400T444 1434H1382Q1433 1434 1462 1408T1491 1337V1333Q1491 1275 1421 1208L369 223H1067Q1113 223 1146 190T1180 111T1147 33T1067 0H92Q43
0 14 26T-16 96V100Q-16 156 53 225Z" />
<glyph unicode="[" glyph-name="bracketleft" horiz-adv-x="931" d="M971 1239H637L285 -72H565Q605 -72 634 -100T664 -168Q664 -208 635 -237T565 -266H135Q78 -266 48 -228T31 -137L418 1307Q432 1363 472 1398T571 1434H971Q1011 1434 1039 1405T1067 1335Q1067
1295 1039 1267T971 1239Z" />
<glyph unicode="\" glyph-name="backslash" horiz-adv-x="1067" d="M487 1546L866 -104Q877 -167 877 -180Q877 -220 850 -246T780 -272Q694 -272 674 -174L295 1477Q285 1532 285 1552Q285 1593 311 1619T381 1645Q467 1645 487 1546Z" />
<glyph unicode="]" glyph-name="bracketright" horiz-adv-x="931" d="M383 -266H-16Q-56 -266 -85 -237T-115 -168T-86 -100T-16 -72H315L668 1239H387Q347 1239 318 1267T289 1335T318 1404T387 1434H819Q875 1434 906 1396T922 1305L535 -139Q520 -196 481 -231T383
-266Z" />
<glyph unicode="^" glyph-name="asciicircum" horiz-adv-x="1024" d="M299 1110L557 1368Q631 1442 698 1442H715Q758 1442 785 1424T831 1364L952 1102Q971 1062 971 1042Q971 1023 955 1011T913 999Q864 999 839 1015T784 1087L686 1280L483 1083Q430 1035 398
1017T328 999Q299 999 284 1014T268 1049Q268 1079 299 1110Z" />
<glyph unicode="_" glyph-name="underscore" horiz-adv-x="1228" d="M-207 -328Q-247 -328 -276 -300T-305 -231T-276 -163T-207 -135H1030Q1070 -135 1098 -163T1126 -231T1098 -299T1030 -328H-207Z" />
<glyph unicode="`" glyph-name="grave" horiz-adv-x="1024" d="M688 1264L584 1395Q559 1428 559 1450Q559 1482 606 1509T705 1536Q775 1536 797 1473L862 1298Q870 1279 870 1262Q870 1237 850 1223T793 1208Q755 1208 734 1219T688 1264Z" />
<glyph unicode="a" glyph-name="a" horiz-adv-x="1193" d="M449 156Q560 156 655 230T782 414L797 463Q667 504 535 504Q419 504 346 449T272 301Q272 236 320 196T449 156ZM801 -10Q737 -10 714 23T696 104L707 143Q556 -23 350 -23Q210 -23 118 58T25 272Q25
454 157 559T498 664Q653 664 834 610L840 629Q852 681 852 719Q852 883 612 883Q511 883 399 852Q378 846 356 846Q313 846 286 874T258 946Q258 982 279 1007T336 1044Q494 1096 662 1096Q872 1096 983 1009T1094 762Q1094 706 1071 604L940 113Q924 55 887 23T801
-10Z" />
<glyph unicode="b" glyph-name="b" horiz-adv-x="1368" d="M676 -23Q427 -23 309 193L289 113Q274 58 239 24T152 -10Q89 -10 61 33T51 150L379 1382Q395 1440 432 1472T518 1505Q581 1505 609 1462T618 1346L508 938Q588 1018 671 1061T854 1104Q1039 1104 1157
978T1276 641Q1276 501 1226 376T1092 165T900 28T676 -23ZM645 190Q798 190 908 317T1018 625Q1018 747 948 819T762 891Q664 891 574 833T429 675T373 463Q373 344 449 267T645 190Z" />
<glyph unicode="c" glyph-name="c" horiz-adv-x="1148" d="M958 111Q794 -25 586 -25Q372 -25 231 107T90 457Q90 587 142 707T280 913T484 1052T729 1104Q963 1104 1104 946Q1147 899 1147 848Q1147 800 1113 767T1030 733Q974 733 944 772Q858 889 709 889Q637
889 569 854T451 760T369 623T338 459Q338 337 412 263T594 188Q712 188 821 270Q862 299 897 299Q939 299 968 269T997 195Q997 145 958 111Z" />
<glyph unicode="d" glyph-name="d" horiz-adv-x="1368" d="M606 190Q704 190 794 248T939 406T995 618Q995 737 919 814T721 891Q569 891 459 764T348 457Q348 335 418 263T606 190ZM1007 -10T954 -10T873 19T846 98L858 143Q778 63 695 20T512 -23Q328 -23 209
103T90 440Q90 580 141 705T275 916T467 1053T692 1104Q940 1104 1057 889L1188 1382Q1203 1440 1240 1472T1327 1505Q1390 1505 1418 1462T1425 1346L1098 113Q1082 55 1045 23Z" />
<glyph unicode="e" glyph-name="e" horiz-adv-x="1228" d="M606 178Q727 178 823 244Q869 268 901 268Q941 268 968 241T995 172Q995 117 948 88Q794 -25 582 -25Q356 -25 223 103T90 449Q90 569 137 686T266 896T469 1046T727 1104Q930 1104 1044 986T1159 684Q1159
635 1147 565Q1121 455 1024 455H328V434Q333 316 405 247T606 178ZM352 618H913Q924 648 924 694Q924 785 870 843T709 901Q586 901 490 822T352 618Z" />
<glyph unicode="f" glyph-name="f" horiz-adv-x="811" d="M549 868L346 113Q330 55 293 23T207 -10Q144 -10 116 33T106 150L301 868H272Q234 873 206 901T178 975Q178 1020 208 1050T283 1081H358L379 1169Q468 1505 791 1505Q854 1505 907 1491Q945 1483 968
1458T991 1393Q991 1336 956 1305T877 1282Q836 1294 797 1294Q660 1294 618 1143L602 1081H776Q821 1081 851 1051T881 975T851 899T776 868H549Z" />
<glyph unicode="g" glyph-name="g" horiz-adv-x="1363" d="M606 289Q755 289 869 398T983 651Q983 756 911 824T721 893Q574 893 465 783T356 520Q356 410 426 350T606 289ZM1053 887L1075 969Q1090 1025 1124 1059T1212 1094Q1275 1094 1303 1050T1313 932L1114
188Q1075 43 1035 -37T930 -180Q778 -332 504 -332Q245 -332 33 -215Q-35 -180 -35 -119Q-35 -74 -5 -42T70 -10Q109 -10 145 -31Q308 -131 489 -131Q656 -131 754 -35Q825 36 866 184L885 250Q795 166 709 126T514 86T312 130T159 265T98 477Q98 608 149 726T284
926T476 1056T696 1104Q770 1104 829 1087T930 1036T1000 968T1053 887Z" />
<glyph unicode="h" glyph-name="h" horiz-adv-x="1265" d="M1135 590L1008 113Q992 55 956 23T870 -10Q807 -10 779 33T770 150L891 600Q907 656 907 709Q907 790 858 834T719 879Q616 879 536 804T422 608L289 113Q273 55 237 23T152 -10Q89 -10 61 33T51 150L379
1382Q395 1440 432 1472T518 1505Q581 1505 609 1462T618 1346L510 944Q586 1018 665 1061T840 1104Q989 1104 1078 1017T1167 780Q1167 716 1135 590Z" />
<glyph unicode="i" glyph-name="i" horiz-adv-x="585" d="M653 1352Q641 1300 597 1269T492 1237Q431 1237 395 1270T371 1354L377 1378Q389 1431 433 1462T539 1493Q599 1493 634 1459T659 1376L653 1352ZM522 932L303 113Q287 55 250 23T164 -10Q101 -10 73
33T63 150L285 969Q300 1029 336 1061T422 1094Q486 1094 514 1050T522 932Z" />
<glyph unicode="j" glyph-name="j" horiz-adv-x="583" d="M522 932L268 -14Q185 -334 -98 -334Q-252 -334 -252 -229Q-252 -184 -223 -154T-150 -127Q-117 -133 -96 -133Q-51 -133 -23 -100T27 6L285 969Q300 1029 336 1061T422 1094Q486 1094 514 1050T522 932ZM653
1352Q641 1300 597 1269T492 1237Q431 1237 395 1270T371 1354L377 1378Q389 1431 433 1462T539 1493Q599 1493 634 1459T659 1376L653 1352Z" />
<glyph unicode="k" glyph-name="k" horiz-adv-x="1191" d="M621 1346L422 604L991 1049Q1050 1094 1087 1094Q1133 1094 1161 1066T1190 993Q1190 939 1143 907L770 623L969 186Q993 131 993 100Q993 49 955 20T864 -10Q775 -10 737 78L555 469L340 305L289 113Q273
55 237 23T152 -10Q89 -10 61 33T51 150L383 1382Q398 1440 434 1472T520 1505Q583 1505 611 1463T621 1346Z" />
<glyph unicode="l" glyph-name="l" horiz-adv-x="585" d="M633 1346L303 113Q287 55 250 23T164 -10Q101 -10 73 33T63 150L395 1382Q411 1441 447 1473T535 1505Q597 1505 624 1463T633 1346Z" />
<glyph unicode="m" glyph-name="m" horiz-adv-x="1945" d="M752 150L872 600Q887 658 887 709Q887 790 841 834T711 879Q609 879 532 805T422 608L289 113Q273 55 237 23T152 -10Q89 -10 61 33T51 150L270 969Q286 1029 323 1061T412 1094Q465 1094 494 1063T522
987L510 944Q586 1020 659 1062T827 1104Q942 1104 1017 1045T1122 887Q1285 1104 1528 1104Q1674 1104 1761 1016T1849 780Q1849 724 1815 590L1688 113Q1672 55 1636 23T1550 -10Q1486 -10 1458 32T1450 150L1571 600Q1585 661 1585 709Q1585 790 1540 834T1409
879Q1309 879 1231 804T1122 608L989 113Q974 55 938 23T850 -10Q787 -10 760 33T752 150Z" />
<glyph unicode="n" glyph-name="n" horiz-adv-x="1263" d="M412 1094Q465 1094 494 1063T522 987L510 944Q586 1018 665 1061T840 1104Q989 1104 1078 1017T1167 780Q1167 716 1135 590L1008 113Q992 55 956 23T870 -10Q807 -10 779 33T770 150L891 600Q907 656
907 709Q907 790 858 834T719 879Q616 879 536 804T422 608L289 113Q273 55 237 23T152 -10Q89 -10 61 33T51 150L270 969Q286 1029 323 1061T412 1094Z" />
<glyph unicode="o" glyph-name="o" horiz-adv-x="1323" d="M600 -25Q371 -25 232 113T92 469Q92 591 142 707T276 910T478 1051T723 1104Q952 1104 1091 965T1231 608Q1231 487 1181 371T1045 168T843 28T600 -25ZM614 190Q690 190 760 227T878 323T956 456T985
602Q985 736 909 812T709 889Q607 889 520 826T386 669T338 477Q338 343 414 267T614 190Z" />
<glyph unicode="p" glyph-name="p" horiz-adv-x="1368" d="M762 891Q664 891 574 833T429 675T373 463Q373 344 449 267T645 190Q798 190 908 317T1018 625Q1018 747 948 819T762 891ZM412 1094Q466 1094 494 1064T520 983L508 938Q588 1018 671 1061T854 1104Q1039
1104 1157 978T1276 641Q1276 501 1226 376T1092 165T900 28T676 -23Q427 -23 309 193L201 -215Q185 -273 149 -305T63 -338Q0 -338 -28 -296T-37 -178L270 969Q286 1029 323 1061T412 1094Z" />
<glyph unicode="q" glyph-name="q" horiz-adv-x="1368" d="M692 1104Q941 1104 1057 891L1079 969Q1094 1025 1128 1059T1217 1094Q1279 1094 1306 1050T1315 932L1012 -215Q995 -274 958 -306T872 -338Q810 -338 781 -295T772 -178L858 145Q697 -23 512 -23Q328
-23 209 103T90 440Q90 580 141 705T275 916T467 1053T692 1104ZM721 891Q569 891 459 764T348 457Q348 335 418 263T606 190Q704 190 794 248T939 407T995 621Q995 739 919 815T721 891Z" />
<glyph unicode="r" glyph-name="r" horiz-adv-x="843" d="M510 946L485 854Q552 970 636 1033T805 1096Q855 1096 884 1066T913 983Q913 880 797 852Q468 779 367 401L289 113Q272 55 236 23T150 -10Q87 -10 59 33T49 150L270 969Q286 1029 322 1061T408 1094Q468
1094 496 1053T510 946Z" />
<glyph unicode="s" glyph-name="s" horiz-adv-x="1021" d="M465 170Q539 170 588 205T637 299Q637 338 600 368T479 434Q418 459 377 479T293 527T225 584T184 654T168 743Q168 899 284 1001T592 1104Q685 1104 778 1074T940 1001Q997 968 997 907Q997 862 967
831T893 799Q864 799 825 823Q702 909 573 909Q496 909 452 875T408 786Q408 746 446 715T580 645Q650 615 696 590T788 528T855 445T877 342Q877 177 755 76T444 -25Q215 -25 27 117Q-18 149 -18 205Q-18 249 11 280T82 311Q119 311 154 285Q296 170 465 170Z"
/>
<glyph unicode="t" glyph-name="t" horiz-adv-x="837" d="M352 1081L403 1266Q419 1324 455 1356T541 1389Q604 1389 632 1346T641 1229L600 1081H766Q809 1081 839 1051T870 975Q870 929 840 899T766 868H543L403 346Q395 306 395 285Q395 201 500 201Q521 201
543 205Q585 208 612 184T639 113Q639 38 571 10Q506 -18 406 -18Q274 -18 203 40T131 195Q131 261 150 319L295 868H266Q228 873 200 901T172 975Q172 1020 202 1050T276 1081H352Z" />
<glyph unicode="u" glyph-name="u" horiz-adv-x="1265" d="M906 -10T854 -10T772 20T743 94L756 139Q594 -23 428 -23Q277 -23 188 64T98 301Q98 360 131 492L258 969Q274 1029 310 1061T395 1094Q459 1094 487 1050T496 932L375 481Q360 421 360 373Q360 292
409 248T547 203Q650 203 730 277T844 473L977 969Q992 1028 1028 1061T1114 1094Q1178 1094 1206 1050T1214 932L997 113Q980 54 943 22Z" />
<glyph unicode="v" glyph-name="v" horiz-adv-x="1191" d="M1196 926L608 84Q571 31 534 7T444 -18H438Q329 -18 313 92L180 913Q174 941 174 977Q174 1026 212 1060T299 1094Q354 1094 387 1065T426 985L510 291L981 1012Q1036 1094 1112 1094Q1161 1094 1189
1068T1217 997Q1217 961 1196 926Z" />
<glyph unicode="w" glyph-name="w" horiz-adv-x="1746" d="M240 96L182 913Q178 951 178 975Q178 1023 216 1058T305 1094Q360 1094 394 1065T430 985L461 344L846 995Q902 1094 991 1094H1004Q1053 1094 1082 1068T1114 993L1151 342L1550 1016Q1593 1094 1669
1094Q1716 1094 1742 1069T1769 999Q1769 968 1747 928L1231 82Q1173 -18 1071 -18H1063Q1011 -18 981 11T948 96L909 731L522 84Q463 -18 362 -18H354Q303 -18 273 11T240 96Z" />
<glyph unicode="x" glyph-name="x" horiz-adv-x="1171" d="M473 1004L625 719L944 1030Q991 1075 1013 1085Q1036 1096 1065 1096Q1107 1096 1136 1069T1165 997Q1165 935 1108 887L729 541L932 199Q963 145 963 102Q963 50 929 17T842 -16Q799 -16 772 7T719
78L559 381L217 51Q212 47 201 37T184 23T170 11T153 1T137 -7T117 -12T96 -14Q53 -14 25 14T-4 86Q-4 146 53 197L453 559L260 883Q227 932 227 979Q227 1029 259 1062T344 1096Q391 1096 418 1074T473 1004Z" />
<glyph unicode="y" glyph-name="y" horiz-adv-x="1198" d="M61 -98Q123 -123 170 -123Q259 -123 344 -2L193 913Q188 945 188 975Q188 1025 223 1059T311 1094Q362 1094 396 1064T434 983L530 274L981 1012Q1030 1094 1110 1094Q1159 1094 1189 1068T1219 995Q1219
963 1186 909L580 -31Q472 -196 370 -265T139 -334Q43 -334 -18 -303Q-94 -272 -94 -195Q-94 -150 -64 -118T6 -86Q21 -86 61 -98Z" />
<glyph unicode="z" glyph-name="z" horiz-adv-x="1134" d="M328 1081H1038Q1090 1081 1119 1057T1149 991V989Q1149 928 1090 879L332 203H825Q867 203 897 173T928 100Q928 59 898 30T825 0H86Q35 0 5 24T-25 92V94Q-25 151 35 203L793 879H328Q285 879 255 908T225
979Q225 1022 255 1051T328 1081Z" />
<glyph unicode="{" glyph-name="braceleft" horiz-adv-x="997" d="M213 682H225Q370 682 432 753T522 1016Q554 1233 672 1338T1016 1460Q1070 1464 1098 1442T1126 1376Q1126 1339 1105 1317T1047 1288Q966 1276 912 1253T822 1187T769 1093T739 961Q725 854
701 783T635 668T541 601T412 569Q492 554 535 508T578 391Q578 339 545 246Q508 135 508 74Q508 4 541 -37T637 -104Q696 -132 696 -190Q696 -237 663 -263T580 -276Q421 -238 346 -162T270 33Q270 100 313 229Q340 312 340 367Q340 423 313 451T219 489Q111 509
111 588Q111 629 139 655T213 682Z" />
<glyph unicode="|" glyph-name="bar" horiz-adv-x="677" d="M276 -174V1546Q276 1587 305 1616T375 1645Q417 1645 446 1617T475 1546V-174Q475 -215 446 -243T375 -272Q335 -272 306 -244T276 -174Z" />
<glyph unicode="}" glyph-name="braceright" horiz-adv-x="997" d="M809 494H797Q653 494 591 423T500 160Q468 -57 350 -162T6 -285Q-48 -289 -76 -267T-104 -201Q-104 -164 -83 -142T-25 -113Q132 -91 196 -18T283 215Q309 422 383 505T610 606Q530 622 488
668T446 784Q446 843 477 930Q514 1041 514 1102Q514 1172 482 1212T385 1280Q326 1306 326 1366Q326 1412 360 1438T442 1452Q602 1414 678 1338T754 1143Q754 1075 711 946Q682 868 682 809Q682 752 709 724T803 686H805Q911 667 911 588Q911 546 883 520T809
494Z" />
<glyph unicode="~" glyph-name="asciitilde" horiz-adv-x="1013" d="M221 469Q190 469 169 489T147 539Q147 563 164 592Q270 782 416 782Q462 782 496 767T569 719Q613 686 633 675T676 664Q733 664 784 739Q818 780 862 780Q893 780 913 762T934 713Q934 684
920 657Q810 469 668 469Q620 469 588 484T512 532Q480 557 468 565T440 581T408 588Q378 588 353 570T297 512Q266 469 221 469Z" />
</font>
</defs>
</svg>
